<?xml version="1.0" standalone="no"?><!DOCTYPE svg PUBLIC "-//W3C//DTD SVG 1.1//EN"
  "http://www.w3.org/Graphics/SVG/1.1/DTD/svg11.dtd">
<svg t="1557903538085" class="icon" style="" viewBox="0 0 1024 1024" version="1.1" xmlns="http://www.w3.org/2000/svg"
     p-id="4396" xmlns:xlink="http://www.w3.org/1999/xlink" width="200" height="200">
  <defs>
    <style type="text/css"></style>
  </defs>
  <path
    d="M511.5 74.6c-240.7 0-437.7 196.7-437.7 437.2S270.7 949 511.5 949c240.7 0 437.7-196.7 437.7-437.2 0-243.2-197-437.2-437.7-437.2z m109.4 278.7h-49.2c-19.1 0-30.1 2.7-35.6 10.9s-8.2 19.1-8.2 32.8v60.1h93L607.3 550H528v240.5h-95.7V550h-82.1v-92.9h82.1v-68.3c0-38.3 10.9-68.3 32.8-90.2 21.9-21.9 52-32.8 87.5-32.8 30.1 0 54.7 0 71.1 2.7v84.7h-2.8z m0 0"
    p-id="4397" style="fill: #ffffff;"></path>
</svg>
