<?xml version="1.0" standalone="no"?>
<!DOCTYPE svg PUBLIC "-//W3C//DTD SVG 1.1//EN" "http://www.w3.org/Graphics/SVG/1.1/DTD/svg11.dtd" >
<!--
2013-9-30: Created.
-->
<svg>
<metadata>
Created by iconfont
</metadata>
<defs>

<font id="iconfont" horiz-adv-x="1024" >
  <font-face
    font-family="iconfont"
    font-weight="500"
    font-stretch="normal"
    units-per-em="1024"
    ascent="896"
    descent="-128"
  />
    <missing-glyph />
    
    <glyph glyph-name="dian" unicode="&#58972;" d="M70.747297-35.049892c0 27.004027 13.942547 49.686632 32.28838 49.686632 19.079544 0 33.022091-22.682605 33.022091-49.686632 0-29.163203-13.942547-48.604998-33.022091-48.604998C82.487689-82.575302 70.747297-62.052896 70.747297-35.049892z"  horiz-adv-x="1024" />

    
    <glyph glyph-name="dizhi" unicode="&#58991;" d="M513.024 746.496c144.384 0 261.632-117.248 261.632-261.632 0-54.272-25.088-99.84-44.544-146.432-27.648-64.512-190.464-330.24-217.088-330.24-22.528 0-186.368 268.8-212.48 323.584-23.04 48.128-49.152 95.744-49.152 153.088-0.512 144.384 116.736 261.632 261.632 261.632m0 40.96c-166.912 0-303.104-135.68-303.104-302.592 0-60.416 24.576-111.104 46.08-155.648 2.56-5.12 4.608-9.728 7.168-14.848C277.504 284.16 326.656 200.704 373.248 128c26.112-40.96 49.152-75.776 67.072-100.352 30.72-41.984 47.616-59.904 72.192-59.904 25.6 0 44.032 18.944 74.24 58.88 18.944 25.088 42.496 59.904 68.608 100.864 43.008 67.584 95.232 156.16 112.128 195.584 3.072 7.168 6.144 14.336 9.728 22.016 17.92 40.448 38.4 86.016 38.4 140.288 0 166.4-135.68 302.08-302.592 302.08zM513.024 336.896c-83.456 0-151.552 68.096-151.552 151.552S429.568 640 513.024 640s151.552-68.096 151.552-151.552c0-12.288-1.536-24.064-4.096-35.84-2.56-10.752-13.824-17.92-24.576-14.848-10.752 2.56-17.92 13.824-14.848 24.576 2.048 8.704 3.072 17.408 3.072 26.112 0 60.928-49.664 110.592-110.592 110.592s-110.592-49.664-110.592-110.592 49.664-110.592 110.592-110.592c24.576 0 47.616 7.68 67.072 22.528 9.216 6.656 22.016 5.12 28.672-4.096 6.656-9.216 5.12-22.016-4.096-28.672-27.136-19.968-58.88-30.72-92.16-30.72z"  horiz-adv-x="1024" />

    
    <glyph glyph-name="fangxing" unicode="&#58884;" d="M512 100.430769c-5.907692 0-11.815385 2.756923-15.36 7.483077l-273.329231 352.098462a19.574154 19.574154 0 0 0-1.181538 22.44923l97.673846 156.356924c3.150769 5.907692 9.452308 9.452308 16.541538 9.452307h351.704616c6.695385 0 12.996923-3.544615 16.541538-9.452307l97.673846-156.356924c4.332308-7.089231 3.938462-16.147692-1.181538-22.44923l-273.329231-352.098462c-3.938462-4.726154-9.846154-7.483077-15.753846-7.483077z m-249.698462 372.972308L512 152.024615l249.304615 320.984616-84.676923 135.483077H346.978462l-84.676924-135.089231zM1004.307692-128H19.692308c-11.027692 0-19.692308 8.664615-19.692308 19.692308V876.307692C0 887.335385 8.664615 896 19.692308 896h984.615384c11.027692 0 19.692308-8.664615 19.692308-19.692308v-984.615384c0-11.027692-8.664615-19.692308-19.692308-19.692308zM39.384615-88.615385h945.23077V856.615385H39.384615v-945.23077z"  horiz-adv-x="1024" />

    
    <glyph glyph-name="aqies" unicode="&#58886;" d="M840.079966-127.998818H183.933031a18.510748 18.510748 0 0 0-13.7846 5.907685L5.914775 42.142524a17.880595 17.880595 0 0 0-5.907686 13.784599V712.074058c0 5.119994 1.969228 10.239988 5.907686 13.7846L170.148431 890.092315c3.544611 3.938457 8.27076 5.907685 13.7846 5.907685h656.540781c5.119994 0 10.239988-1.969228 13.784599-5.907685l164.233657-164.233657c3.544611-3.544611 5.51384-8.27076 5.51384-13.7846v-656.540781c0-5.119994-1.969228-10.239988-5.907686-13.784599l-164.233656-164.233657c-3.544611-3.544611-8.27076-5.51384-13.7846-5.513839zM191.809945-88.614249h639.999261L984.621338 63.804037V704.197144L832.203052 856.61543H191.809945L39.391659 704.197144v-639.999261L191.809945-88.614249zM512.006498 110.27783c-5.907685 0-11.815371 2.75692-15.753828 7.483068l-273.328915 352.098055a19.574131 19.574131 0 0 0-1.181537 22.449205l97.673733 156.356743c3.544611 5.51384 9.846142 9.058451 16.935366 9.058451h351.704209c6.695377 0 12.996908-3.544611 16.541519-9.452297l97.673734-156.356743c4.332303-7.089223 3.938457-16.147674-1.181537-22.449204l-273.328916-352.098056c-3.938457-4.332303-9.846142-7.089223-15.753828-7.089222z m-249.698173 372.578031L512.006498 161.871616l249.304328 320.984245-84.676825 135.482921H346.98515l-84.676825-135.482921z"  horiz-adv-x="1024" />

    
    <glyph glyph-name="cui" unicode="&#58888;" d="M774.695385-128H251.667692c-5.513846 0-10.633846 2.363077-14.572307 5.907692L103.975385 12.209231a20.401231 20.401231 0 0 0-5.513847 13.784615V741.612308c0 5.12 1.969231 9.846154 5.513847 13.784615L237.095385 890.092308c3.938462 3.544615 9.058462 5.907692 14.572307 5.907692h523.027693c5.513846 0 11.027692-2.363077 14.572307-6.301538l130.756923-134.301539c3.544615-3.544615 5.513846-8.270769 5.513847-13.390769v-716.012308c0-5.12-1.969231-9.846154-5.513847-13.390769l-130.756923-134.301539c-3.938462-3.938462-9.058462-6.301538-14.572307-6.301538zM260.332308-88.615385h505.698461l119.335385 122.486154V734.129231L766.030769 856.615385H260.332308L139.027692 733.735385v-699.864616L260.332308-88.615385zM658.510769 68.923077h-291.446154c-5.907692 0-11.421538 2.363077-14.966153 6.695385l-74.043077 80.738461a19.968 19.968 0 0 0-5.12 12.996923V598.646154c0 4.726154 1.969231 9.452308 5.12 12.996923l74.043077 80.738461A18.904615 18.904615 0 0 0 366.670769 699.076923h291.446154c5.907692 0 11.421538-2.363077 15.36-6.695385l72.861539-80.738461c3.150769-3.544615 5.12-8.270769 5.12-12.996923v-430.08c0-4.726154-1.969231-9.452308-5.12-12.996923l-72.861539-80.738462c-3.938462-3.544615-9.452308-5.907692-14.966154-5.907692z m-282.781538 39.384615h273.329231l61.833846 68.529231V591.556923L649.058462 659.692308H376.123077l-63.015385-68.529231v-414.72L375.729231 108.307692z"  horiz-adv-x="1024" />

    
    <glyph glyph-name="dianzi" unicode="&#58889;" d="M512-128C0-128 0 257.181538 0 384S0 896 512 896s512-385.181538 512-512 0-512-512-512z m0 984.615385C39.384615 856.615385 39.384615 525.390769 39.384615 384s0-472.615385 472.615385-472.615385 472.615385 331.224615 472.615385 472.615385S984.615385 856.615385 512 856.615385zM512 100.824615c-5.907692 0-11.815385 2.756923-15.36 7.483077l-273.329231 352.098462a19.574154 19.574154 0 0 0-1.181538 22.449231l97.673846 156.356923c3.150769 5.907692 9.452308 9.452308 16.541538 9.452307h351.704616c6.695385 0 12.996923-3.544615 16.541538-9.452307l97.673846-156.356923c4.332308-7.089231 3.938462-16.147692-1.181538-22.449231L527.36 108.307692c-3.544615-4.726154-9.452308-7.483077-15.36-7.483077z m-249.304615 372.972308L512 152.418462l249.304615 320.984615-84.676923 135.483077H346.978462l-84.283077-135.089231z"  horiz-adv-x="1024" />

    
    <glyph glyph-name="aixin" unicode="&#58890;" d="M512.399754-128c-4.726154 0-9.058462 1.575385-12.603077 4.726154C426.935138-61.833846-202.037169 485.612308 66.172062 811.323077 110.676677 865.673846 175.267446 895.606154 246.947446 896h1.181539c77.193846 0 153.6-35.84 204.406153-96.492308L512.399754 727.827692l60.258461 71.68C623.070523 860.16 699.476677 896 776.670523 896h1.181539c72.073846-0.393846 136.270769-30.326154 180.775384-84.676923 267.815385-325.316923-361.156923-873.156923-433.624615-934.596923-3.544615-3.150769-7.876923-4.726154-12.603077-4.726154zM248.128985 856.615385h-0.787693c-60.258462-0.393846-113.821538-25.206154-150.843077-70.498462-232.369231-281.993846 320.984615-785.329231 415.901539-868.430769 94.916923 83.101538 647.876923 586.830769 415.901538 868.430769-37.021538 44.898462-90.584615 70.104615-150.843077 70.498462h-0.787692c-65.772308 0-130.756923-30.72-174.08-82.313847l-75.224615-89.796923c-7.483077-9.058462-22.843077-9.058462-30.326154 0L421.815138 774.301538C378.885908 825.895385 313.901292 856.615385 248.128985 856.615385zM512.399754 165.809231c-5.907692 0-11.815385 2.756923-15.36 7.483077l-214.646154 276.086154a19.574154 19.574154 0 0 0-1.181538 22.44923l76.8 122.88c3.150769 5.907692 9.452308 9.452308 16.541538 9.452308h276.086154c6.695385 0 12.996923-3.544615 16.541538-9.452308l76.8-122.88c4.332308-7.089231 3.938462-16.147692-1.181538-22.44923l-214.646154-276.086154c-3.938462-4.726154-9.452308-7.483077-15.753846-7.483077zM321.778215 462.769231L512.399754 217.403077 703.021292 462.769231l-63.40923 101.612307H385.187446L321.778215 462.769231z"  horiz-adv-x="1024" />

    
    <glyph glyph-name="fushe" unicode="&#58891;" d="M512 100.431687c-5.907685 0-11.815371 2.75692-15.359982 7.483068l-273.328916 352.098056a19.574131 19.574131 0 0 0-1.181537 22.449205l97.673734 156.356742c3.150766 5.907685 9.452297 9.452297 16.541519 9.452297h351.70421c6.695377 0 12.996908-3.544611 16.541519-9.452297l97.673733-156.356742c4.332303-7.089223 3.938457-16.147674-1.181537-22.449205l-273.328915-352.098056c-3.938457-4.726148-9.846142-7.483068-15.753828-7.483068z m-249.304328 372.971878L512 152.025474l249.304328 320.984245-84.676826 135.48292H346.978652l-84.28298-135.089074zM775.482773-127.998818H248.517227a18.510748 18.510748 0 0 0-13.784599 5.907685l-131.150618 131.150618a20.086131 20.086131 0 0 0-5.907686 13.784599V745.157097c0 5.119994 1.969228 10.239988 5.907686 13.7846L234.732628 890.092315c3.544611 3.938457 8.664605 5.907685 13.784599 5.907685h526.5717c5.119994 0 10.239988-1.969228 13.7846-5.907685l131.150618-131.150618c3.544611-3.544611 5.907685-8.664605 5.907685-13.7846v-721.919167c0-5.119994-1.969228-10.239988-5.907685-13.784599l-131.150618-131.150618c-3.150766-4.332303-8.27076-6.301531-13.390754-6.301531zM256.787987-88.614249h510.424026l119.729093 119.729093V736.886337L767.212013 856.61543H256.787987L137.058894 736.886337v-705.771493L256.787987-88.614249z m649.845404 111.458333z"  horiz-adv-x="1024" />

    
    <glyph glyph-name="tuoyuan" unicode="&#58892;" d="M512 129.181538c-5.907692 0-11.815385 2.756923-15.36 7.483077l-214.646154 276.086154a19.574154 19.574154 0 0 0-1.181538 22.449231l76.8 122.88c3.150769 5.907692 9.452308 9.058462 16.541538 9.058462h276.086154c6.695385 0 12.996923-3.544615 16.541538-9.452308l76.8-122.88c4.332308-7.089231 3.938462-16.147692-1.181538-22.449231l-214.646154-276.086154c-3.938462-4.332308-9.846154-7.089231-15.753846-7.089231z m-190.621538 296.96L512 180.775385l190.621538 245.366153-63.40923 101.612308H384.787692l-63.40923-101.612308zM512-128c-206.769231 0-375.335385 229.612308-375.335385 512S305.230769 896 512 896c206.769231 0 375.335385-229.612308 375.335385-512S718.769231-128 512-128z m0 984.615385C326.892308 856.615385 176.049231 644.726154 176.049231 384S326.892308-88.615385 512-88.615385s335.950769 211.889231 335.950769 472.615385S697.107692 856.615385 512 856.615385z"  horiz-adv-x="1024" />

    
    <glyph glyph-name="houjue" unicode="&#58893;" d="M512 153.206154c-5.907692 0-11.815385 2.756923-15.36 7.483077l-187.864615 241.821538a19.574154 19.574154 0 0 0-1.181539 22.449231l66.953846 107.52a18.510769 18.510769 0 0 0 16.541539 9.452308h241.821538c6.695385 0 12.996923-3.544615 16.541539-9.452308l66.953846-107.52c4.332308-7.089231 3.938462-16.147692-1.181539-22.449231l-187.864615-241.821538c-3.544615-4.332308-9.452308-7.483077-15.36-7.483077z m-163.84 263.089231L512 205.193846l163.84 211.101539-53.956923 86.646153h-219.766154l-53.956923-86.646153zM512-128c-4.726154 0-9.058462 1.575385-12.996923 4.726154-13.784615 11.815385-335.163077 290.264615-335.163077 504.123077v3.938461c0 216.221538 321.378462 494.670769 334.769231 506.486154a19.692308 19.692308 0 0 0 25.6 0c13.784615-11.815385 335.163077-290.264615 335.163077-503.729231v-3.150769c0-217.009231-321.378462-495.852308-334.769231-507.667692-3.544615-3.150769-7.876923-4.726154-12.603077-4.726154z m0 977.92c-59.864615-54.350769-308.381538-289.870769-308.381538-462.769231v-3.938461c0-175.261538 248.516923-411.175385 308.381538-465.132308 59.864615 54.350769 308.381538 289.870769 308.381538 462.769231v6.301538l19.692308 0.393846h-19.692308c0 172.504615-248.516923 408.024615-308.381538 462.375385z"  horiz-adv-x="1024" />

    
    <glyph glyph-name="li" unicode="&#58894;" d="M512 255.606154c-5.907692 0-11.815385 2.756923-15.36 7.483077L281.993846 539.569231a19.534769 19.534769 0 0 0-1.181538 22.449231l76.8 122.88a18.904615 18.904615 0 0 0 16.541538 9.058461h276.086154c6.695385 0 12.996923-3.544615 16.541538-9.452308l76.8-122.88c4.332308-7.089231 3.938462-16.147692-1.181538-22.44923l-214.646154-276.086154c-3.938462-4.726154-9.846154-7.483077-15.753846-7.483077zM321.378462 552.96L512 307.593846l190.621538 245.366154-63.40923 101.612308H384.787692L321.378462 552.96zM512-128c-5.513846 0-10.633846 2.363077-14.178462 5.907692-14.966154 15.36-361.156923 379.273846-361.156923 655.753846C136.664615 777.452308 259.544615 896 512 896s375.335385-118.547692 375.335385-362.338462c0-276.48-346.190769-640.393846-361.156923-655.753846-3.544615-3.544615-8.664615-5.907692-14.178462-5.907692z m0 984.615385C282.781538 856.615385 176.049231 754.215385 176.049231 533.661538c0-230.4 270.178462-541.144615 335.950769-613.218461 65.772308 72.073846 335.950769 382.818462 335.950769 613.218461C847.950769 754.215385 741.218462 856.615385 512 856.615385z"  horiz-adv-x="1024" />

    
    <glyph glyph-name="yuanxin" unicode="&#58895;" d="M512 73.255385c-5.907692 0-11.815385 2.756923-15.36 7.483077l-273.329231 351.704615a19.574154 19.574154 0 0 0-1.181538 22.449231l97.673846 156.356923c3.150769 6.301538 9.452308 9.846154 16.541538 9.846154h351.704616c6.695385 0 12.996923-3.544615 16.541538-9.452308l97.673846-156.356923c4.332308-7.089231 3.938462-16.147692-1.181538-22.449231l-273.329231-351.704615c-3.938462-5.12-9.846154-7.876923-15.753846-7.876923z m-249.304615 372.972307L512 125.243077l249.304615 320.984615-84.676923 135.483077H346.978462l-84.283077-135.483077zM512-128C229.612308-128 0 101.612308 0 384S229.612308 896 512 896s512-229.612308 512-512-229.612308-512-512-512z m0 984.615385C251.273846 856.615385 39.384615 644.726154 39.384615 384s211.889231-472.615385 472.615385-472.615385 472.615385 211.889231 472.615385 472.615385S772.726154 856.615385 512 856.615385z"  horiz-adv-x="1024" />

    
    <glyph glyph-name="sp-dz" unicode="&#58887;" d="M351.2 417.07c33.55 9.05 58.32 39.73 58.32 76.11 0 36.99-25.62 68.09-60.02 76.55v46.8c0 4.86-1.88 9.52-5.28 13.03-26.48 27.53-54.79 66.19-54.79 79.87 0 20.1 18.49 36.46 41.25 36.46 22.71 0 41.21-16.36 41.21-36.46 0-10.37 8.44-18.79 18.81-18.79s18.81 8.42 18.81 18.79c0 40.82-35.38 74.04-78.84 74.04-43.5 0-78.88-33.22-78.88-74.04 0-31.98 40.93-79.78 60.07-100.38v-39.31c-34.44-8.45-60.07-39.56-60.07-76.55 0-37.6 26.47-69.11 61.77-76.95v-43.66C294.33 350.46 197.94 235 197.94 141.95c0-92.63 45.93-141.59 132.76-141.59s132.7 48.96 132.7 141.59c0 88.45-87.06 197.14-112.2 226.68v48.44z m-61.76 76.11c0 22.74 18.49 41.25 41.25 41.25 22.71 0 41.21-18.52 41.21-41.25s-18.49-41.25-41.21-41.25c-22.76 0-41.25 18.51-41.25 41.25z m-20.51-439.43c19.05 41.91 45.42 80.74 61.58 102.87 16.11-22.03 42.36-60.66 61.35-102.38 0.1-0.22 0.23-0.43 0.34-0.65-15.06-10.59-35.41-15.64-61.51-15.64-26.24-0.01-46.67 5.1-61.76 15.8z m148.64 33.78c-30.78 60.76-70.67 109.73-72.51 111.97-7.16 8.72-21.93 8.72-29.09 0-1.9-2.32-41.62-51.08-72.33-111.6-5.44 14.59-8.07 32.54-8.07 54.06 0 66.58 63.63 153.42 93.72 190.74 0.99-0.17 2-0.27 3.03-0.27 30.13-37.47 93.45-124.04 93.45-190.46 0-21.72-2.67-39.79-8.2-54.44zM714.14 368.58v48.5c33.56 9.06 58.32 39.73 58.32 76.1 0 37-25.63 68.1-60.07 76.55v46.79c0 4.86-1.88 9.52-5.28 13.03-26.43 27.51-54.74 66.19-54.74 79.87 0 20.1 18.49 36.46 41.21 36.46 22.76 0 41.25-16.36 41.25-36.46 0-10.37 8.44-18.79 18.81-18.79s18.81 8.42 18.81 18.79c0 40.82-35.38 74.04-78.88 74.04-43.46 0-78.84-33.22-78.84-74.04 0-31.98 40.89-79.78 60.02-100.38v-39.32c-34.41-8.46-60.02-39.56-60.02-76.55 0-37.61 26.49-69.13 61.77-76.95v-43.6c-19.14-21.99-115.64-137.56-115.64-230.68 0-92.63 45.89-141.59 132.71-141.59s132.76 48.96 132.76 141.59c0 88.41-86.99 197.03-112.19 226.64z m-61.77 124.6c0 22.74 18.49 41.25 41.21 41.25 22.76 0 41.25-18.52 41.25-41.25s-18.49-41.25-41.25-41.25c-22.72 0-41.21 18.51-41.21 41.25z m39.81-160.49c0.99-0.17 2-0.27 3.03-0.28 30.18-37.47 93.5-124.04 93.5-190.47 0-21.7-2.67-39.77-8.21-54.43-30.81 60.76-70.66 109.74-72.51 111.98-3.58 4.36-8.9 6.88-14.55 6.88s-10.97-2.52-14.55-6.88c-1.9-2.32-41.62-51.08-72.33-111.6-5.44 14.59-8.07 32.54-8.07 54.06 0.01 66.59 63.64 153.43 93.69 190.74z m-60.33-278.95c19.05 41.91 45.43 80.75 61.59 102.87 16.11-22 42.26-60.57 61.35-102.38 0.1-0.22 0.22-0.43 0.33-0.64-15.07-10.59-35.43-15.65-61.55-15.65-26.21 0-46.63 5.11-61.72 15.8z"  horiz-adv-x="1024" />

    
    <glyph glyph-name="sp-dz1" unicode="&#58896;" d="M274.56 584.32a24.32 24.32 0 0 0-24.32 24.32v59.52c-24.96 26.88-78.72 89.6-78.72 131.2C171.52 852.48 217.6 896 274.56 896 331.52 896 377.6 852.48 377.6 799.36a24.32 24.32 0 1 0-48.64 0c0 26.24-24.32 47.36-53.76 47.36-30.08 0-53.76-21.12-53.76-47.36 0-17.92 37.12-68.48 71.68-104.32 4.48-4.48 7.04-10.88 7.04-17.28v-69.12c-0.64-13.44-12.16-24.32-25.6-24.32zM274.56 413.44a102.976 102.976 0 1 0 0 206.08 102.976 102.976 0 1 0 0-206.08z m0 156.8c-30.08 0-53.76-24.32-53.76-53.76 0-29.44 24.32-53.76 53.76-53.76 29.44 0 53.76 24.32 53.76 53.76 0 29.44-23.68 53.76-53.76 53.76zM277.12 305.92a24.32 24.32 0 0 0-24.32 24.32V437.76a24.32 24.32 0 1 0 48.64 0v-106.88c0-13.44-10.88-24.96-24.32-24.96zM274.56-128c-113.28 0-173.44 64-173.44 184.96 0 132.48 149.12 299.52 155.52 306.56 4.48 5.12 11.52 8.32 18.56 8.32 7.04 0 13.44-3.2 18.56-8.32 5.76-7.04 154.24-174.08 154.24-306.56C448-64 388.48-128 274.56-128z m0 437.12c-38.4-47.36-124.16-163.2-124.16-251.52 0-94.08 38.4-135.68 124.16-135.68 85.76 0 124.16 42.24 124.16 135.68 0.64 87.68-85.76 203.52-124.16 251.52zM167.68-81.28c-3.2 0-6.4 0.64-9.6 1.92a25.216 25.216 0 0 0-12.8 32.64c40.96 94.08 107.52 176 110.08 179.2 9.6 11.52 28.8 11.52 37.76 0 2.56-3.2 65.28-80 106.24-169.6 5.76-12.16 0-26.88-12.16-32.64-12.16-5.76-26.88 0-32.64 12.16-24.96 54.4-58.88 104.96-80 133.76-22.4-30.08-58.88-85.12-84.48-142.72-3.84-8.96-12.8-14.72-22.4-14.72zM749.44 584.32a24.32 24.32 0 0 0-24.32 24.32v59.52c-24.96 26.88-78.72 89.6-78.72 131.2 0 53.12 46.08 96.64 103.04 96.64 56.96 0 103.04-43.52 103.04-96.64a24.32 24.32 0 1 0-48.64 0c0 26.24-24.32 47.36-53.76 47.36-29.44 0-53.76-21.12-53.76-47.36 0-17.92 37.12-68.48 71.68-104.32 4.48-4.48 7.04-10.88 7.04-17.28v-69.12c-1.28-13.44-12.16-24.32-25.6-24.32zM749.44 413.44a102.976 102.976 0 1 0 0 206.08 102.976 102.976 0 1 0 0-206.08z m0 156.8c-29.44 0-53.76-24.32-53.76-53.76 0-29.44 24.32-53.76 53.76-53.76 30.08 0 53.76 24.32 53.76 53.76 0 29.44-24.32 53.76-53.76 53.76zM751.36 305.92a24.32 24.32 0 0 0-24.32 24.32V437.76a24.32 24.32 0 1 0 48.64 0v-106.88c0.64-13.44-10.88-24.96-24.32-24.96zM749.44-128C635.52-128 576-64 576 56.96c0 132.48 149.12 299.52 155.52 306.56 8.96 10.24 27.52 10.24 36.48 0 6.4-7.04 155.52-174.08 155.52-306.56C922.88-64 862.72-128 749.44-128z m0 437.12c-38.4-47.36-124.16-163.2-124.16-251.52 0-94.08 38.4-135.68 124.16-135.68 85.76 0 124.16 42.24 124.16 135.68 0 87.68-85.76 203.52-124.16 251.52zM642.56-81.28c-3.2 0-6.4 0.64-9.6 1.92a25.216 25.216 0 0 0-12.8 32.64c40.96 94.08 107.52 176 110.08 179.2 4.48 5.76 11.52 8.96 19.2 8.96s14.08-3.2 19.2-8.96c2.56-3.2 64.64-80 106.24-169.6 5.76-12.16 0-26.88-12.16-32.64-12.16-5.76-26.88 0-32.64 12.16-24.96 54.4-58.88 104.96-80 133.76-22.4-30.08-58.88-85.12-84.48-142.72a26.88 26.88 0 0 0-23.04-14.72z"  horiz-adv-x="1024" />

    
    <glyph glyph-name="diamond-match" unicode="&#58897;" d="M409.41 570.94c-3.98 6.36-10.83 10.16-18.34 10.16H148.11c-7.5 0-14.36-3.8-18.34-10.16L62.29 462.95c-4.79-7.68-4.28-17.62 1.27-24.75l188.97-242.95c4.13-5.3 10.35-8.34 17.07-8.34 6.72 0 12.94 3.04 17.07 8.35l188.96 242.95c5.55 7.13 6.06 17.08 1.27 24.76l-67.49 107.97z m22.8-118.11L269.59 243.76 106.97 452.83l53.13 85h218.98l53.13-85zM961.71 462.95l-67.48 107.99c-3.98 6.36-10.83 10.16-18.34 10.16H632.94c-7.5 0-14.36-3.8-18.34-10.16l-67.5-107.99c-4.79-7.66-4.28-17.61 1.27-24.75l188.97-242.95c4.13-5.3 10.35-8.34 17.07-8.34 6.72 0 12.94 3.04 17.07 8.35l188.96 242.95c5.55 7.12 6.06 17.06 1.27 24.74z m-97.82 74.89l53.13-85-162.61-209.08L591.8 452.83l53.13 85h218.96z"  horiz-adv-x="1024" />

    
    <glyph glyph-name="diamond-pendant" unicode="&#58898;" d="M748.97 826.11c-11.79 9.33-28.96 7.39-38.35-4.45-47.79-60.32-143.85-156.01-198.2-156.01-54.3 0-150.94 95.74-199.11 156.09-9.33 11.76-26.61 13.68-38.35 4.29-11.79-9.39-13.76-26.56-4.32-38.35 11.75-14.75 99.93-122.9 185.27-162.3l-45.85-28.97c-12.8-8.05-16.59-24.93-8.53-37.68 8.11-12.77 25.12-16.48 37.66-8.51l73.23 46.27 73.28-46.27c4.48-2.85 9.55-4.21 14.56-4.21 9.01 0 17.92 4.51 23.09 12.72 8.05 12.75 4.21 29.63-8.53 37.68l-45.89 28.98c85.19 39.42 172.8 147.59 184.46 162.34 9.4 11.84 7.42 29.02-4.42 38.38zM531.04 538.06l-17.97 16.35-18.29-15.89c-8.27-7.12-201.4-177.21-201.4-408.85 0-148.6 142.94-191.64 219.27-193.66 4.27 0 105.61 0.75 168.44 64.64 32.75 33.31 48.91 76.88 48 129.47-3.91 228.54-190.16 400.71-198.05 407.94zM642.3 39.13c-46.56-47.58-128.91-48.51-128.91-48.51-6.77 0.16-165.4 5.92-165.4 139.05 0 166.65 117.87 302.87 164.22 349.94 45.07-47.87 159.42-185.37 162.25-350.39 0.64-37.88-9.87-67.32-32.16-90.09z"  horiz-adv-x="1024" />

    
    <glyph glyph-name="Jewelry-gift-d" unicode="&#58899;" d="M935.79 645.94H821.25c8.92 64.86-11.72 121.93-56.68 151.03-35.77 23.15-81.41 25.51-128.47 6.5-44.05-17.8-84.55-52.68-114.02-98.2-4.09-6.33-7.9-12.75-11.44-19.27-3.54 6.52-7.35 12.94-11.44 19.27-29.47 45.52-69.97 80.41-114.02 98.2-47.09 19.07-92.73 16.7-128.47-6.5-44.93-29.09-65.58-86.17-56.67-151.03H88.21c-13.36 0-24.21-10.85-24.21-24.21V460.3c0-13.36 10.85-24.21 24.21-24.21h36.33v-367.12c0-64.62 52.59-117.21 117.21-117.21h542.68c63.44 0 115.02 51.58 115.02 115.02v369.3h36.33c13.36 0 24.21 10.85 24.21 24.21V621.73c0.01 13.36-10.84 24.21-24.2 24.21z m-373.03 33.02c24.09 37.22 56.61 65.51 91.52 79.61 31.9 12.98 61.72 12.15 83.98-2.28 30.15-19.51 42.6-61.49 33.99-110.35H544.87c4.97 11.26 10.94 22.3 17.89 33.02z m-279.74 77.33c22.26 14.43 52.12 15.22 83.98 2.28 34.91-14.1 67.43-42.39 91.52-79.61 6.95-10.72 12.91-21.76 17.89-33.02H249.04c-8.61 48.87 3.85 90.84 33.98 110.35z m-170.6-158.77h375.37v-113.01H112.42V597.52z m60.54-528.56V436.08h314.83v-435.91H241.75c-37.93 0.01-68.79 30.87-68.79 68.79z m678.08-2.18c0-36.72-29.89-66.6-66.6-66.6H536.21v435.9h314.83v-369.3z m60.54 417.73H536.21V597.52h375.37v-113.01z"  horiz-adv-x="1024" />

    
    <glyph glyph-name="Jewelry-earring" unicode="&#58900;" d="M327.84 413.15c38.32 10.4 66.73 45.14 66.73 86.72 0 42.3-29.36 77.62-68.7 87.33V641c0 5.57-2.15 10.89-6.01 14.91-30.27 31.48-62.69 75.71-62.69 91.38 0 23 21.19 41.71 47.2 41.71 26.02 0 47.2-18.72 47.2-41.71 0-11.87 9.63-21.5 21.5-21.5s21.5 9.63 21.5 21.5c0 46.7-40.45 84.71-90.2 84.71s-90.2-38.01-90.2-84.71c0-36.6 46.78-91.28 68.7-114.85v-45.24c-39.34-9.7-68.7-45.03-68.7-87.33 0-43.02 30.31-78.98 70.67-87.94v-49.98c-21.34-24.51-132.28-157.04-132.28-263.97C152.56-8 205.06-64 304.37-64s151.81 56 151.81 161.97c0 101.24-99.63 225.64-128.35 259.4v55.78z m-70.67 86.71c0 26.02 21.19 47.2 47.2 47.2 26.02 0 47.2-21.19 47.2-47.2s-21.19-47.2-47.2-47.2-47.2 21.19-47.2 47.2z m-23.06-502.6c21.8 47.83 51.6 92.26 70.08 117.51 18.43-25.23 48.43-69.41 70.22-117.14 0.06-0.14 0.19-0.22 0.25-0.35C357.41-14.9 334.33-21 304.37-21c-29.93 0-53 6.09-70.26 18.26z m169.26 38.88c-35.16 69.26-80.46 125.14-82.54 127.7-8.19 9.98-25.1 9.98-33.29 0-2.16-2.64-47.33-58.11-82.43-127.05-6.18 16.66-9.56 36.66-9.56 61.19 0 76.54 73.32 176.24 107.51 218.6 1.05-0.17 2-0.61 3.09-0.62 34.4-42.65 107.02-141.64 107.02-217.98 0.02-24.86-3.45-45.06-9.8-61.84zM743.07 357.4v55.74c38.32 10.4 66.73 45.14 66.73 86.72 0 42.3-29.36 77.61-68.67 87.32v53.81c0 5.57-2.15 10.89-6.01 14.91-30.27 31.48-62.69 75.71-62.69 91.38 0 23 21.19 41.71 47.2 41.71 26.02 0 47.17-18.72 47.17-41.71 0-11.87 9.63-21.5 21.5-21.5s21.5 9.63 21.5 21.5c0 46.7-40.45 84.71-90.17 84.71-49.75 0-90.2-38.01-90.2-84.71 0-36.6 46.78-91.28 68.7-114.85v-45.24c-39.34-9.7-68.7-45.03-68.7-87.33 0-43.01 30.3-78.96 70.64-87.93v-50.02c-21.4-24.58-132.28-157.04-132.28-263.94C567.79-8 620.29-64 719.63-64c99.31 0 151.81 56 151.81 161.97 0 101.27-99.69 225.71-128.37 259.43z m-70.65 142.46c0 26.02 21.19 47.2 47.2 47.2 26.02 0 47.17-21.19 47.17-47.2s-21.16-47.2-47.17-47.2-47.2 21.19-47.2 47.2z m45.9-183.29c1.05-0.17 2.01-0.62 3.1-0.63 34.4-42.65 107.02-141.64 107.02-217.97 0-24.85-3.47-45.05-9.82-61.83-35.16 69.26-80.46 125.14-82.54 127.7-8.19 9.98-25.1 9.98-33.29 0-2.16-2.64-47.34-58.12-82.44-127.08-6.19 16.67-9.58 36.67-9.58 61.21 0.02 76.54 73.34 176.24 107.55 218.6z m-68.96-319.31c21.8 47.83 51.61 92.27 70.08 117.52 18.43-25.23 48.43-69.41 70.22-117.14 0.06-0.13 0.19-0.21 0.25-0.35C772.66-14.9 749.59-21 719.63-21c-29.94 0-53.01 6.09-70.27 18.26z"  horiz-adv-x="1024" />

    
    <glyph glyph-name="Jewelry-gift-man" unicode="&#58901;" d="M879.95 156.48c-10.49 24.49-227.51 98-227.51 98 52.55-161.01-80.5-297.52-80.5-297.52L540.42 170.5l14.02 10.5-14 24.5h-42.02l-14-24.5 14-10.5-21-217.01C340.91 41 368.92 254.51 368.92 254.51 309.41 251 141.4 156.47 141.4 156.47 102.89 96.99 99.4-64 99.4-64h822.56c14 59.5-31.51 196.02-42.01 220.48zM298.89 457.52c17.5-126.01 105-220.48 210.02-220.48 108.5 0 196.01 98.01 210.01 224.02 0 0 7.03 70.01 24.54 111.97 13.99 35.01 27.99 70 13.99 101.51-13.99 45.5-49.01 87.51-91.01 112.01-45.5 28.01-147.01 66.51-227.51 31.51-10.5-3.5-17.5-10.5-28.01-21-14-13.99-31.51-28.01-63-35-49.01-7-80.5-42.01-91.01-73.5-10.5-35.01 3.5-70.01 17.5-105.01 21-45.53 24.48-126.03 24.48-126.03z m210.1-185.47l-0.06-0.05c-27.51 0-53.33 8.68-76.69 22.97 12.59 12.8 40.05 35.62 76.72 35.62 36.98 0 64.3-23.04 76.56-35.68-23.32-14.23-49.08-22.86-76.53-22.86zM347.92 520.5c14 3.5 38.46 7 52.55 31.51l31.51 42c7-3.49 24.5-10.49 56-31.51 17.5-10.49 35-17.49 49.01-17.49 19.35 0 32.01 8.71 41.72 17.56l27.04-8.38c11.23-6.67 23.42-11.9 36.25-16.18 31.51-13.99 45.5-20.99 45.5-38.45 0-73.49-27.86-137.94-70.13-179.49-14.74 7.74-64.21 31.63-114.16 31.63-57.26 0-97.7-31.39-100.68-33.76-43.43 41.43-72.11 106.89-72.11 181.57 0 17.49 0 17.49 17.5 20.99z"  horiz-adv-x="1024" />

    
    <glyph glyph-name="marry-jd" unicode="&#58902;" d="M837.82 261.82H186.18C118.81 261.82 64 316.63 64 383.99c0 67.38 54.81 122.18 122.18 122.18h651.64c67.38 0 122.18-54.81 122.18-122.18 0-67.36-54.81-122.17-122.18-122.17z m-651.64 217.2c-52.39 0-95.03-42.64-95.03-95.03s42.64-95.02 95.03-95.02h651.64c52.39 0 95.03 42.62 95.03 95.02s-42.64 95.03-95.03 95.03H186.18z"  horiz-adv-x="1024" />

    
    <glyph glyph-name="Jewelry-made-ring" unicode="&#58903;" d="M589.81 832h-155.6l-43.23-67.18 121.03-151.15 121.02 151.15zM373.23 732.4H250.92l-33.98-52.81 95.13-118.81 95.13 118.81zM772.41 732.4H650.1l-33.98-52.81 95.13-118.81 95.13 118.81zM512.01-64c-223.63 0-405.55 181.91-405.55 405.52 0 103.66 39.09 202.31 110.07 277.77 9.14 9.79 24.48 10.17 34.24 1.06 9.76-9.17 10.23-24.51 1.06-34.24-62.5-66.46-96.94-153.33-96.94-244.59 0-196.9 160.21-357.09 357.12-357.09S869.1 144.61 869.1 341.52c0 89.79-33.44 175.62-94.17 241.61-9.05 9.85-8.43 25.19 1.42 34.24 9.82 9.08 25.13 8.43 34.24-1.42 68.98-74.98 106.94-172.45 106.94-274.42C917.53 117.91 735.62-64 512.01-64z"  horiz-adv-x="1024" />

    
    <glyph glyph-name="Jewelry-gift-design" unicode="&#58904;" d="M959.98 156.35a23.779 23.779 0 0 1-7.65 16.64l-92.63 85.62-163.09 150.78 188.2 203.46c8.94 9.69 8.35 24.82-1.34 33.79L707.85 809.09c-4.67 4.32-11.04 6.6-17.17 6.37-6.31-0.26-12.32-3.01-16.64-7.68l-188.23-203.5L339.1 739.91c-0.62 0.57-1.27 1.1-1.93 1.59a23.844 23.844 0 0 1-14.83 9.42L98.25 793.73c-8.23 1.43-16.53-1.2-22.13-7.33s-7.65-14.69-5.37-22.69l61.73-218.48a23.8 23.8 0 0 1 8.59-12.57c0.92-1.28 1.97-2.47 3.15-3.55l146.66-135.58-220.55-238.4c-4.26-4.67-6.6-10.8-6.31-17.17 0.23-6.37 2.98-12.32 7.65-16.64L247.29-41.1c4.61-4.26 10.4-6.37 16.24-6.37 6.42 0 12.85 2.63 17.58 7.71l220.57 238.41 163.19-150.87 92.57-85.56c4.61-4.26 10.4-6.37 16.24-6.37 6.42 0 12.85 2.63 17.58 7.71l162.42 175.62c4.25 4.68 6.59 10.81 6.3 17.17z m-697.8-146.06L121.73 140.23l63.18 68.28c0.55-0.63 1.14-1.24 1.76-1.82l66.99-62.02c4.61-4.26 10.4-6.37 16.24-6.37 6.42 0 12.85 2.63 17.58 7.71 8.94 9.69 8.35 24.82-1.34 33.82l-66.99 62.02c-0.62 0.57-1.26 1.1-1.91 1.59l44.04 47.6a23.64 23.64 0 0 1 3.78-4.51l66.99-62.02c4.61-4.26 10.4-6.37 16.24-6.37 6.42 0 12.85 2.63 17.58 7.71 8.94 9.69 8.35 24.82-1.34 33.82l-66.99 61.96a24.075 24.075 0 0 1-4.78 3.42l32.58 35.21L465.8 230.29l-203.62-220z m286.06 590.99l64.48-59.62c4.61-4.26 10.4-6.37 16.24-6.37 6.42 0 12.85 2.57 17.58 7.68 8.94 9.69 8.35 24.82-1.34 33.79l-64.48 59.62 33.72 36.45 65.28-60.38c4.61-4.26 10.4-6.37 16.24-6.37 6.42 0 12.85 2.57 17.58 7.68 8.94 9.69 8.35 24.82-1.34 33.79l-65.28 60.38 46.06 49.79 140.46-129.95-171.99-185.88-140.5 129.9 27.29 29.49zM127.27 739.47l151.98-29.05-110.11-119.08-41.87 148.13z m196.94-50.95l146.11-135.09c0.18-0.18 0.35-0.38 0.54-0.55l175.62-162.45c0.52-0.48 1.06-0.93 1.62-1.37L809.64 239.7l-64.75-70.06-65.13-70.46L194.26 548l129.95 140.52z m448.12-674.9l-57.4 53.08 64.75 70.06 65.13 70.46 57.47-53.15-129.95-140.45z"  horiz-adv-x="1024" />

    
    <glyph glyph-name="Jewelry-gift-woman" unicode="&#58905;" d="M436.95 170.5c0-10.3 8.64-18.65 19.3-18.65s19.3 8.35 19.3 18.65c0 10.3-8.64 18.65-19.3 18.65-10.66-0.01-19.3-8.36-19.3-18.65zM394.93 186.51c0-9.19 7.71-16.63 17.22-16.63 9.51 0 17.21 7.44 17.21 16.63 0 9.18-7.71 16.63-17.21 16.63-9.52 0-17.22-7.44-17.22-16.63zM359.72 211.34c0-8.07 6.77-14.61 15.13-14.61 8.35 0 15.13 6.55 15.13 14.61 0 8.07-6.78 14.62-15.13 14.62-8.36 0-15.13-6.55-15.13-14.62zM483.99 164.82c0-11.41 9.58-20.66 21.39-20.66 11.82 0 21.39 9.25 21.39 20.66s-9.58 20.66-21.39 20.66-21.39-9.25-21.39-20.66zM535.21 170.5c0-10.3 8.64-18.65 19.3-18.65s19.3 8.35 19.3 18.65c0 10.3-8.64 18.65-19.3 18.65s-19.3-8.36-19.3-18.65zM581.4 186.51c0-9.19 7.71-16.63 17.21-16.63 9.51 0 17.22 7.44 17.22 16.63 0 9.18-7.71 16.63-17.22 16.63-9.5 0-17.21-7.44-17.21-16.63zM620.78 211.34c0-8.07 6.78-14.61 15.13-14.61 8.36 0 15.13 6.55 15.13 14.61 0 8.07-6.77 14.62-15.13 14.62-8.35 0-15.13-6.55-15.13-14.62zM801.85 133.37c-40.76 17.91-111.04 37.38-139.92 45.07 0 0-36.76-183.96-149.94-183.96-113.17 0-151.26 183.96-151.26 183.96-75.96-14.55-175.73-62.33-186.18-68.89C94.42 57.95 109.41-64 109.41-64h803.67c22.09 149.72-102.24 193.27-111.23 197.37zM397.58 270.68c32.48-28.18 71.88-44.72 114.41-44.72 43.22 0 82.76 16.67 115.11 44.72h160.94c36.13 5.61 43.31 13.35 49.46 16.34-49.39 77.94-56.17 232.71-57.43 248.49-13.41 116.27-45.44 165.18-56.17 182.38-160.29 199.58-311.28 76.68-311.28 76.68-104.44 3.95-131.9-92.3-135.99-102.08-17.99-51.59-29.98-147.83-32.98-159.66-24.14-186.32-75.1-244.85-79.2-252.75 11.52-4.17 26.17-7.05 41.67-9.4h191.46z m-73.3 239.74c5.05 2.53 62.17 27.3 89.14 126.37 3.47 3.95 3.15 5.68 10.57 8.21 0 0 32.65-93.25 124.33-103.03 1.41 9.94-11.36-0.63-3.95 63.42 3.95-2.68 50.8-80.62 108.23-87.25 9.31-2.04 34.71-15.15 57.43-15.93 5.99-0.63 44.8-19.88 6.62-71.32-2.05-3.79-14.52-21.61-48.12-32.02-1.16-1.87-12.87-38.43-37.51-76.15-30.54-39.16-72.5-63.75-118.96-63.75l-0.06-0.05c-68.89 0-128.5 53.24-154.47 129.5h-4.49c-1.32 3.54-2.91 6.25-4.16 9.96-3.47 2.05-23.98 6.47-40.07 23.83-2.04 2.55-60.58 58.08 15.47 88.21z"  horiz-adv-x="1024" />

    
    <glyph glyph-name="marry--man-jinshu" unicode="&#58906;" d="M837.82 261.82H186.18C118.81 261.82 64 316.62 64 384s54.81 122.18 122.18 122.18h651.64C905.19 506.18 960 451.37 960 384s-54.81-122.18-122.18-122.18zM186.18 479.03c-52.39 0-95.03-42.64-95.03-95.03s42.64-95.03 95.03-95.03h651.64c52.39 0 95.03 42.64 95.03 95.03s-42.64 95.03-95.03 95.03H186.18zM749.32 372.47H274.68c-6.38 0-11.53 5.17-11.53 11.53s5.16 11.53 11.53 11.53h474.65c6.38 0 11.53-5.17 11.53-11.53s-5.16-11.53-11.54-11.53z"  horiz-adv-x="1024" />

    
    <glyph glyph-name="Jewelry-ring" unicode="&#58907;" d="M911.7 359.98c0 190.03-118.43 351.23-281.09 404.96l0.68 0.85L588.69 832H435.33l-42.6-66.21 0.68-0.85C230.74 711.22 112.3 550.01 112.3 359.98c0-5.46 0.58-10.76 0.77-16.16-0.06-2.84-0.77-5.26-0.77-8.14C112.3 115.3 291.6-64 512.01-64 732.4-64 911.7 115.3 911.7 335.68c0 2.88-0.71 5.3-0.77 8.14 0.19 5.41 0.77 10.71 0.77 16.16zM512.01-16.27c-189.86 0-344.69 161.64-351.35 362.91 6.72 202.87 193.68 246.31 351.35 246.31s344.6-43.44 351.32-246.31c-6.65-201.27-161.46-362.91-351.32-362.91z m296.46 578.24c-33.73 25.73-75.48 45.32-124.78 58.55l30.24 47.18c37.61-28.3 69.72-64.24 94.54-105.73zM673.9 693.74l-40.82-63.68c-31.85 5.37-65.83 8.82-102.77 9.62l67.83 84.72c26.57-7.19 51.98-17.42 75.76-30.66z m-180.19-54.07c-39.75-0.86-76.08-4.8-109.93-10.95l-41.45 60.72c26 15.36 54.09 26.98 83.55 34.95l67.83-84.72z m-190.58 22.46l30.14-44.15c-46.02-13.16-85.75-31.61-117.73-56.01 23.26 38.88 53 72.75 87.59 100.16z"  horiz-adv-x="1024" />

    
    <glyph glyph-name="Jewelry-made-necklace" unicode="&#58908;" d="M228.45 278.84c2.94-12.79 14.2-22.55 28.32-22.55 16.34 0 29.59 12.79 29.59 28.58 0 13.42-9.77 24.16-22.69 27.23-55.69 52.15-87.03 118.44-87.03 188.89 0 156.16 150.44 283.22 335.36 283.22s335.36-127.07 335.36-283.22c0-70.5-31.34-136.78-86.97-188.88-12.92-3.06-22.71-13.81-22.71-27.24 0-15.78 13.25-28.58 29.59-28.58 14.15 0 25.44 9.8 28.34 22.64 64.12 60.91 99.6 139 99.6 222.06C895.21 683.52 723.3 832 512 832S128.79 683.52 128.79 500.99c0-83.05 35.51-161.17 99.66-222.15zM453.69 204.99c0 20.14-16.9 36.46-37.75 36.46s-37.74-16.32-37.74-36.46 16.9-36.46 37.74-36.46 37.75 16.32 37.75 36.46zM329.7 268.83c-18.59 0-33.67-14.56-33.67-32.52s15.07-32.52 33.67-32.52 33.66 14.56 33.66 32.52-15.07 32.52-33.66 32.52zM470.19 193.89c0-22.31 18.72-40.4 41.83-40.4 23.1 0 41.83 18.09 41.83 40.4 0 22.32-18.73 40.41-41.83 40.41-23.1-0.01-41.83-18.1-41.83-40.41zM608.09 241.45c-20.84 0-37.74-16.32-37.74-36.46s16.9-36.46 37.74-36.46c20.85 0 37.75 16.32 37.75 36.46s-16.9 36.46-37.75 36.46zM660.67 236.31a33.67 32.52 0 1 1 67.34 0 33.67 32.52 0 1 1-67.34 0ZM263.64 228.18c-5.6 4.99-13.54 6.56-20.48 4.26-7.12-2.36-12.43-8.29-13.95-15.61l-25.38-122.14c-1.52-7.32 0.99-14.88 6.54-19.87a20.98 20.98 0 0 1 13.95-5.31c2.22 0 4.38 0.35 6.54 1.05l118.46 39.07a20.884 20.884 0 0 1 13.95 15.61c1.52 7.32-0.99 14.88-6.54 19.87l-93.09 83.07z m-11.49-106.53l10.68 51.18 38.98-34.81-49.66-16.37zM780.9 232.44c-6.89 2.25-14.88 0.73-20.48-4.26l-93.08-83.07c-5.54-4.99-8.05-12.55-6.54-19.87a20.884 20.884 0 0 1 13.95-15.61l118.46-39.07c2.16-0.7 4.32-1.05 6.54-1.05 5.08 0 10.04 1.84 13.95 5.31 5.54 4.99 8.05 12.55 6.54 19.87l-25.38 122.14c-1.53 7.32-6.84 13.25-13.96 15.61z m-58.65-94.42l38.98 34.81 10.68-51.18-49.66 16.37zM514.45 151.36c-59.4 0-107.66-48.32-107.66-107.69S455.05-64 514.45-64s107.66 48.29 107.66 107.66-48.25 107.7-107.66 107.7z m0-173.52c-36.3 0-65.88 29.53-65.88 65.82 0 36.33 29.59 65.85 65.88 65.85s65.88-29.53 65.88-65.85c0-36.29-29.58-65.82-65.88-65.82z"  horiz-adv-x="1024" />

    
    <glyph glyph-name="marry--woman-zuans" unicode="&#58909;" d="M562.83 444.51a10.878 10.878 0 0 1-8.91 4.67h-83.87c-3.55 0-6.89-1.75-8.91-4.67l-23.28-33.44c-2.84-4.08-2.55-9.57 0.72-13.31l65.23-75.17c2.04-2.39 5.04-3.77 8.19-3.77s6.15 1.38 8.19 3.77l65.23 75.17c3.26 3.74 3.55 9.23 0.72 13.31l-23.31 33.44zM512 346.27l-51.49 59.34 15.22 21.82h72.52l15.25-21.85-51.5-59.31zM359.27 444.51a10.85 10.85 0 0 1-8.91 4.67H266.5c-3.55 0-6.87-1.75-8.91-4.67l-23.31-33.44c-2.84-4.08-2.55-9.57 0.72-13.31l65.23-75.17c2.04-2.39 5.04-3.77 8.19-3.77 3.16 0 6.15 1.38 8.19 3.77l65.23 75.17c3.26 3.74 3.55 9.23 0.72 13.31l-23.29 33.44z m-50.85-98.24l-51.49 59.31 15.25 21.85h72.52l15.22-21.82-51.5-59.34zM759.76 444.51a10.878 10.878 0 0 1-8.91 4.67h-83.84c-3.55 0-6.87-1.75-8.91-4.67l-23.31-33.44c-2.84-4.08-2.55-9.57 0.72-13.31l65.23-75.17c2.04-2.39 5.04-3.77 8.19-3.77 3.16 0 6.15 1.38 8.19 3.77l65.23 75.17c3.26 3.74 3.55 9.23 0.72 13.31l-23.31 33.44z m-50.83-98.24l-51.49 59.31 15.25 21.85h72.49l15.25-21.85-51.5-59.31zM837.82 506.18H186.18C118.81 506.18 64 451.37 64 384s54.81-122.18 122.18-122.18h651.64C905.19 261.82 960 316.62 960 384s-54.81 122.18-122.18 122.18z m0-217.21H186.18c-52.39 0-95.03 42.64-95.03 95.03s42.64 95.03 95.03 95.03h651.64c52.39 0 95.03-42.64 95.03-95.03s-42.64-95.03-95.03-95.03z"  horiz-adv-x="1024" />

    
    <glyph glyph-name="Jewelry-made-Bracelet" unicode="&#58910;" d="M881.65 304.72c15.57 42.95 23.48 88.09 23.48 134.15C905.12 655.64 728.76 832 512 832S118.88 655.64 118.88 438.88c0-48.93 9-96.67 26.54-141.92-20.74-24.83-20.25-61.58 3.07-84.88 11.96-11.96 27.85-18.55 44.77-18.55 3.52 0 6.69 1.43 10.09 1.99 0.11-0.14 0.13-0.32 0.24-0.46 6.74-8.51 14.08-16.51 21.49-24.42-12.36-28.8-7.09-63.42 16.4-86.88 14.89-14.91 34.7-23.11 55.78-23.11 12.11 0 23.67 2.99 34.26 8.13l24.29-17.01a26.807 26.807 0 0 1 15.44-4.87c3.2 0 6.23 1.11 9.23 2.21 2.2-29.16 14.05-56.4 34.96-77.28 23.87-23.87 55.23-35.81 86.59-35.81s62.71 11.94 86.59 35.81c20.91 20.88 32.76 48.12 34.96 77.28 3-1.1 6.04-2.21 9.23-2.21 5.35 0 10.75 1.58 15.44 4.87l24.29 17.01c10.59-5.13 22.14-8.13 34.26-8.13 21.08 0 40.9 8.2 55.78 23.11 19.48 19.47 25.2 46.45 20.01 71.61 1.78 1.07 3.67 1.9 5.2 3.41a395.81 395.81 0 0 1 31.04 34.33c0.62 0.77 0.78 1.7 1.3 2.51 3.57-0.62 6.89-2.09 10.59-2.09 16.92 0 32.81 6.59 44.77 18.55 23.71 23.69 24.03 61.37 2.2 86.19 1.5 2.02 3.06 3.98 3.96 6.45z m-702.64-62.13c-7.85 7.85-7.85 20.63 0 28.49 3.82 3.79 8.88 5.9 14.26 5.9 5.38 0 10.43-2.08 14.26-5.9 7.85-7.85 7.85-20.63-0.03-28.49-7.6-7.64-20.85-7.59-28.49 0zM272 114.26c-13.94 13.94-13.94 36.63 0 50.57 6.98 6.96 16.13 10.43 25.27 10.43s18.29-3.48 25.27-10.43c13.94-13.94 13.94-36.63 0-50.57-13.97-13.91-36.58-13.91-50.54 0z m286.11-111.94c-30.94-30.88-81.21-30.88-112.15 0-14.97 14.97-23.21 34.89-23.21 56.05 0 21.19 8.25 41.08 23.21 56.07 14.99 14.97 34.89 23.21 56.07 23.21s41.08-8.25 56.07-23.21c14.97-14.99 23.21-34.89 23.21-56.07 0.02-21.16-8.23-41.08-23.2-56.05z m59.81 94.07c-5.9 18.04-15.48 34.75-29.29 48.57-47.75 47.75-125.43 47.75-173.18 0-13.81-13.81-23.39-30.53-29.29-48.57l-16.88 11.82c12.52 28.86 7.33 63.59-16.23 87.14-23.6 23.64-60.77 27.76-90.17 13.92-5.22 5.66-10.41 11.33-15.23 17.32 13.34 24.06 10.79 54.62-9.6 75.01-11.53 11.52-27.23 17.19-43.04 17.62-14.42 38.25-22.18 78.38-22.18 119.67 0 187.01 152.15 339.16 339.16 339.16S851.15 625.9 851.15 438.89c0-39.76-6.82-78.71-20.26-115.76-0.43-1.21-0.29-2.43-0.54-3.65-16.28-0.1-32.54-6.02-44.38-17.88-20.44-20.42-22.97-51.02-9.58-75.1-7.13-8.86-14.86-17.18-22.82-25.27-30.41 22.46-75.37 21.35-102.54-5.87-23.56-23.54-28.75-58.28-16.23-87.14l-16.88-11.83z m114.16 17.87c-13.97-13.91-36.57-13.91-50.54 0-13.94 13.94-13.94 36.63 0 50.57 6.98 6.96 16.13 10.43 25.27 10.43s18.29-3.48 25.27-10.43c13.94-13.94 13.94-36.63 0-50.57z m112.91 128.33c-7.64-7.59-20.87-7.64-28.51 0-7.85 7.85-7.85 20.63 0.03 28.49 3.79 3.82 8.85 5.9 14.23 5.9 5.38 0 10.43-2.11 14.26-5.9 7.85-7.86 7.85-20.64-0.01-28.49z"  horiz-adv-x="1024" />

    
    <glyph glyph-name="Jewelry-bracelet" unicode="&#58911;" d="M155.72 334.09H158h-2.28z m2.27 99.61h-2.7l5.91-0.57-3.21 0.57z m403.78-403.78v-2.42 0.64c0.03 0.6 0.03 1.19 0 1.78z m0 707.94c0.03 0.59 0.03 1.18 0 1.78v0.57-2.35z m304.16-403.77c0.61-0.04 1.24-0.04 1.85 0h0.43-2.28z m1.78 99.61h-1.78l-3.13-0.43 5.84 0.57-0.93-0.14z m0 0M877.75 475.82a371.341 371.341 0 0 1-37.99 94.41 90.556 90.556 0 0 1 22.69 60.27 92.46 92.46 0 0 1-27.09 65.4 92.52 92.52 0 0 1-65.4 27.09 91.493 91.493 0 0 1-56.92-20.07 368.098 368.098 0 0 1-109 46.6c-5.22 46.83-44.8 82.26-91.92 82.26-47.12 0-86.71-35.42-91.92-82.26-37.7-9.33-73.71-24.5-106.72-44.97a91.594 91.594 0 0 1-54.78 18.36c-24.53 0-48.06-9.75-65.4-27.09a92.478 92.478 0 0 1-27.09-65.4 91.302 91.302 0 0 1 19.85-56.92 369.792 369.792 0 0 1-39.77-97.69C99.42 470.6 64 431.02 64 383.9c0-47.13 35.42-86.71 82.26-91.93a373.822 373.822 0 0 1 37.21-92.49c-24.37-27.12-30.54-66.03-15.74-99.36 14.8-33.33 47.8-54.85 84.26-54.96a91.22 91.22 0 0 1 57.99 20.77 371 371 0 0 1 110.21-47.45c5.22-46.83 44.8-82.26 91.92-82.26 47.12 0 86.71 35.42 91.92 82.26 38.61 9.6 75.41 25.36 109 46.67a91.435 91.435 0 0 1 56.92-19.99c24.53 0 48.06 9.75 65.4 27.09a92.478 92.478 0 0 1 27.09 65.4 90.616 90.616 0 0 1-22.7 60.27 371.19 371.19 0 0 1 37.99 94.42c46.83 5.22 82.25 44.8 82.25 91.92 0 47.12-35.42 86.71-82.25 91.92v-0.36z m-145.93 186.2c15.5 18.35 41.94 22.91 62.69 10.81s29.8-37.36 21.46-59.88c-8.34-22.52-31.66-35.8-55.29-31.48-23.62 4.33-40.72 25.01-40.54 49.03a49.1 49.1 0 0 0 11.68 31.52zM511.97 789.45c27.26 0 49.45-21.91 49.8-49.16v-0.64c0.04-0.62 0.04-1.24 0-1.85v-3.13c-2.18-25.56-23.55-45.19-49.2-45.19-25.65 0-47.02 19.63-49.2 45.19l-1.21 5.9c0.5 27.14 22.66 48.88 49.81 48.88zM258.81 680.3a49.11 49.11 0 0 0 36.29-16.15l0.57-0.57a48.834 48.834 0 0 0 12.95-33.01c0-27.5-22.3-49.8-49.8-49.8a48.98 48.98 0 0 0-32.02 12.09c-15.69 13.53-21.36 35.37-14.24 54.82 7.12 19.46 25.54 32.48 46.26 32.69v-0.07z m-97.68-345.64H158l-1.78-0.57h-0.5c-27.51-0.14-49.92 22.05-50.05 49.55-0.14 27.51 22.05 49.92 49.55 50.05h2.85l3.13-0.43c25.56-2.17 45.19-23.55 45.19-49.2 0-25.65-19.63-47.03-45.19-49.2l-0.07-0.2z m129.42-228.25c-15.29-18.88-41.97-23.97-63.14-12.05-21.17 11.92-30.65 37.38-22.43 60.24 8.22 22.86 31.74 36.46 55.65 32.18 23.91-4.28 41.25-25.2 41.02-49.49a49.84 49.84 0 0 0-11.1-30.88z m271.22-78.91c-0.11-27.42-22.38-49.6-49.8-49.6-27.43 0-49.69 22.17-49.81 49.6l0.57 5.91c2.18 25.56 23.55 45.19 49.2 45.19 25.65 0 47.03-19.64 49.2-45.19v-3.13c0.03-0.59 0.03-1.19 0-1.78l0.64-1z m208.18 59.98c-21.78-0.19-41.16 13.79-47.84 34.52-6.69 20.73 0.88 43.4 18.67 55.96 17.79 12.57 41.69 12.12 58.99-1.12a49.22 49.22 0 0 0 19.99-39.49 49.792 49.792 0 0 0-14.56-35.26 49.86 49.86 0 0 0-35.25-14.61z m35.01 135.19a90.72 90.72 0 0 1-35.01 7.12c-24.53 0-48.06-9.75-65.4-27.09a92.52 92.52 0 0 1-27.09-65.4 89.838 89.838 0 0 1 8.68-38.85 329.744 329.744 0 0 0-87.94-37.71c-13.39 36.04-47.78 59.95-86.23 59.95s-72.84-23.9-86.24-59.95a330.222 330.222 0 0 0-89.65 38.56 89.45 89.45 0 0 1 8.25 37.78c0 51.08-41.41 92.49-92.49 92.49-11.4 0.01-22.7-2.13-33.3-6.33a335.245 335.245 0 0 0-29.74 74.14c36.02 13.43 59.91 47.83 59.91 86.27 0 38.45-23.89 72.84-59.91 86.27a330.367 330.367 0 0 0 31.44 76.84 91.55 91.55 0 0 1 38.85-8.75c24.53 0 48.06 9.75 65.4 27.09a92.52 92.52 0 0 1 27.09 65.4 91.346 91.346 0 0 1-10.39 41.05 329.848 329.848 0 0 0 84.24 35.58c13.39-36.04 47.78-59.95 86.23-59.95s72.84 23.91 86.24 59.95c31-8.25 60.62-20.98 87.94-37.78a89.566 89.566 0 0 1-8.68-38.78c0-24.53 9.75-48.06 27.09-65.4a92.46 92.46 0 0 1 65.4-27.09 89.58 89.58 0 0 1 35 7.12 334.261 334.261 0 0 0 30.17-74.92c-36.02-13.43-59.91-47.82-59.91-86.27 0-38.44 23.89-72.84 59.91-86.27a333.843 333.843 0 0 0-29.89-74.99v-0.08z m63.25 111.42h-0.5c-0.62-0.04-1.24-0.04-1.85 0h-3.13c-25.56 2.17-45.19 23.55-45.19 49.2 0 25.65 19.64 47.03 45.19 49.2l3.13 0.43h2.71c27.5-0.12 49.71-22.51 49.59-50.01-0.12-27.51-22.51-49.71-50.02-49.59l0.07 0.77z m0 0"  horiz-adv-x="1024" />

    
    <glyph glyph-name="marry--woman-jingdian" unicode="&#58912;" d="M562.84 444.51a10.864 10.864 0 0 1-8.91 4.67h-83.87c-3.55 0-6.88-1.75-8.91-4.67l-23.29-33.44c-2.85-4.08-2.56-9.57 0.7-13.31l65.23-75.17c2.07-2.39 5.06-3.77 8.21-3.77 3.14 0 6.14 1.38 8.21 3.77l65.23 75.17c3.26 3.74 3.55 9.23 0.7 13.31l-23.3 33.44zM512 346.27l-51.48 59.34 15.22 21.82h72.52l15.22-21.82L512 346.27zM837.82 506.18H186.18C118.81 506.18 64 451.37 64 384s54.81-122.18 122.18-122.18h651.64C905.19 261.82 960 316.62 960 384s-54.81 122.18-122.18 122.18z m0-217.21H186.18c-52.39 0-95.03 42.64-95.03 95.03s42.64 95.03 95.03 95.03h651.64c52.39 0 95.03-42.64 95.03-95.03s-42.64-95.03-95.03-95.03z"  horiz-adv-x="1024" />

    
    <glyph glyph-name="star-jt" unicode="&#58913;" d="M583.48 666.77l73.15 78.43c12.82 13.77 12.06 35.27-1.66 48.09s-35.27 12.06-48.09-1.66l-94.9-101.74-94.85 101.74c-12.82 13.72-34.32 14.48-48.09 1.66-13.72-12.82-14.48-34.32-1.66-48.09l73.12-78.42c-161.17-33.18-282.73-176.17-282.73-347 0-195.31 158.9-354.21 354.21-354.21s354.25 158.9 354.25 354.21c0 170.82-121.59 313.82-282.75 346.99z m-71.5-633.12c-157.76 0-286.13 128.37-286.13 286.13 0 157.81 128.37 286.18 286.13 286.18 157.81 0 286.18-128.37 286.18-286.18-0.01-157.76-128.38-286.13-286.18-286.13z"  horiz-adv-x="1024" />

    
    <glyph glyph-name="ring-jy" unicode="&#58914;" d="M578.36 456.83a7.599 7.599 0 0 1-5.95 2.88H453.55c-2.32 0-4.51-1.06-5.95-2.88l-33.01-41.94a7.59 7.59 0 0 1 0.54-9.99l92.44-94.35a7.606 7.606 0 0 1 5.41-2.27c2.03 0 3.98 0.81 5.41 2.27l92.44 94.35c2.66 2.72 2.9 6.99 0.54 9.99l-33.01 41.94z m-65.38-130.15l-82.37 84.07 26.61 33.83h111.51l26.61-33.83-82.36-84.07zM893.6 448.61H673.16c-25.69 63.84-88.25 109.04-161.17 109.04S376.5 512.46 350.82 448.61H130.39c-35.63 0-64.61-28.98-64.61-64.61 0-35.64 28.98-64.62 64.61-64.62h220.44c25.69-63.84 88.25-109.02 161.17-109.02s135.48 45.19 161.17 109.02H893.6c35.64 0 64.62 28.98 64.62 64.62 0 35.63-28.98 64.61-64.62 64.61zM344.01 339.57H130.39c-24.49 0-44.42 19.93-44.42 44.43s19.92 44.42 44.42 44.42h213.73a173.106 173.106 0 0 1-5.77-44.42c0-1.7 0.03-3.39 0.08-5.08 0.33-13.21 2.19-26.39 5.58-39.35z m167.98-109.02c-84.19 0-152.74 68.14-153.44 152.17v0.37c0 17.54 3.11 35.03 9.23 52l4.4 12.15c24.14 53.16 77.73 90.21 139.81 90.21 62.17 0 115.82-37.16 139.91-90.44l4.29-11.92c6.08-16.84 9.18-34.17 9.24-51.51-0.22-84.43-68.96-153.03-153.44-153.03zM893.6 339.57H679.99c3.44 13.14 5.3 26.51 5.59 39.91 0 0.11 0 0.22 0.01 0.33 0.02 1.09 0.05 2.19 0.05 3.28 0 0.13-0.01 0.26-0.01 0.39 0 0.17 0.01 0.35 0.01 0.52 0 15.35-2.01 30.23-5.77 44.42H893.6c24.49 0 44.43-19.92 44.43-44.42s-19.93-44.43-44.43-44.43z"  horiz-adv-x="1024" />

    
    <glyph glyph-name="marry--woman-zhounian" unicode="&#58915;" d="M562.84 444.51a10.864 10.864 0 0 1-8.91 4.67h-83.87c-3.55 0-6.88-1.75-8.91-4.67l-23.29-33.44c-2.85-4.08-2.56-9.57 0.7-13.31l65.23-75.17c2.07-2.39 5.06-3.77 8.21-3.77 3.14 0 6.14 1.38 8.21 3.77l65.23 75.17c3.26 3.74 3.55 9.23 0.7 13.31l-23.3 33.44zM512 346.27l-51.48 59.34 15.22 21.82h72.52l15.22-21.82L512 346.27zM837.82 506.18H186.18C118.81 506.18 64 451.37 64 384s54.81-122.18 122.18-122.18h651.64C905.19 261.82 960 316.62 960 384s-54.81 122.18-122.18 122.18z m0-217.21H186.18c-52.39 0-95.03 42.64-95.03 95.03s42.64 95.03 95.03 95.03h651.64c52.39 0 95.03-42.64 95.03-95.03s-42.64-95.03-95.03-95.03zM406.42 394.87H216.36c-5.99 0-10.86-4.88-10.86-10.87s4.87-10.87 10.86-10.87h190.06c5.99 0 10.86 4.88 10.86 10.87s-4.87 10.87-10.86 10.87zM810.67 394.87H620.61c-5.99 0-10.86-4.88-10.86-10.87s4.87-10.87 10.86-10.87h190.06c5.99 0 10.86 4.88 10.86 10.87s-4.87 10.87-10.86 10.87z"  horiz-adv-x="1024" />

    
    <glyph glyph-name="ring-bx" unicode="&#58916;" d="M512.99 300.99a7.53 7.53 0 0 0-5.42 2.28l-83.74 85.46c-2.67 2.74-2.92 7.02-0.54 10.02l29.9 38a7.597 7.597 0 0 0 5.97 2.9h107.67c2.33 0 4.53-1.06 5.97-2.9l29.9-38a7.584 7.584 0 0 0-0.54-10.02l-83.74-85.46a7.569 7.569 0 0 0-5.43-2.28z m-73.64 93.6l73.64-75.14 73.64 75.14-23.49 29.85h-100.3l-23.49-29.85zM512 248.28c-74.85 0-135.74 60.88-135.74 135.72S437.15 519.72 512 519.72c74.83 0 135.72-60.88 135.72-135.72S586.83 248.28 512 248.28z m0 251.17c-63.66 0-115.45-51.8-115.45-115.45S448.34 268.55 512 268.55c63.64 0 115.42 51.8 115.42 115.45S575.64 499.45 512 499.45zM365.61 263.28c-0.79 0-1.58 0.09-2.35 0.27L129.12 319.4C93.93 319.89 64 348.21 64 384c0 35.77 30.27 64.86 67.48 64.86l233.54 51.36c3.04 0.68 6.16-0.09 8.56-2.03 2.4-1.94 3.76-4.86 3.76-7.95l-1.58-216.91c-0.02-3.09-1.46-6-3.89-7.91-1.8-1.4-4.01-2.14-6.26-2.14z m-8.64 214.42l-223.32-48.87c-28.19-0.24-49.35-20.24-49.35-44.83s21.16-44.6 47.18-44.6l224.09-53.17 1.4 191.47zM656.78 263.28c-2.3 0-4.55 0.78-6.39 2.26-2.4 1.94-3.79 4.86-3.76 7.95l1.61 216.91c0.02 3.09 1.46 6 3.89 7.91a10.1 10.1 0 0 0 8.61 1.88l234.11-55.85h0.5c34.65 0 64.65-29 64.65-64.59 0-35.77-30.3-64.86-67.5-64.86l-233.54-51.36c-0.72-0.17-1.46-0.25-2.18-0.25z m11.66 214.24L667 286.04l223.32 48.87c28.22 0.24 49.38 20.24 49.38 44.83s-21.16 44.59-47.2 44.59l-224.06 53.19z"  horiz-adv-x="1024" />

    
    <glyph glyph-name="marry--woman-yongheng" unicode="&#58917;" d="M839.31 263.31H184.69C118.14 263.31 64 317.45 64 384s54.14 120.69 120.69 120.69h654.62C905.86 504.69 960 450.55 960 384s-54.14-120.69-120.69-120.69zM184.69 481.52c-53.77 0-97.52-43.75-97.52-97.52s43.75-97.52 97.52-97.52h654.62c53.77 0 97.52 43.75 97.52 97.52s-43.75 97.52-97.52 97.52H184.69zM130.14 317.86C93.67 317.86 64 347.53 64 384s29.67 66.14 66.14 66.14 66.14-29.67 66.14-66.14-29.68-66.14-66.14-66.14z m0 109.1c-23.69 0-42.96-19.27-42.96-42.96s19.27-42.96 42.96-42.96S173.1 360.31 173.1 384s-19.27 42.96-42.96 42.96zM239.24 317.86c-36.47 0-66.14 29.67-66.14 66.14s29.67 66.14 66.14 66.14 66.14-29.67 66.14-66.14-29.67-66.14-66.14-66.14z m0 109.1c-23.69 0-42.96-19.27-42.96-42.96s19.27-42.96 42.96-42.96S282.2 360.31 282.2 384c0.01 23.69-19.26 42.96-42.96 42.96zM348.35 317.86c-36.47 0-66.14 29.67-66.14 66.14s29.67 66.14 66.14 66.14 66.14-29.67 66.14-66.14-29.68-66.14-66.14-66.14z m0 109.1c-23.69 0-42.96-19.27-42.96-42.96s19.27-42.96 42.96-42.96 42.96 19.27 42.96 42.96-19.27 42.96-42.96 42.96zM457.45 317.86c-36.47 0-66.14 29.67-66.14 66.14s29.67 66.14 66.14 66.14 66.14-29.67 66.14-66.14-29.68-66.14-66.14-66.14z m0 109.1c-23.69 0-42.96-19.27-42.96-42.96s19.27-42.96 42.96-42.96 42.96 19.27 42.96 42.96-19.27 42.96-42.96 42.96zM566.55 317.86c-36.47 0-66.14 29.67-66.14 66.14s29.67 66.14 66.14 66.14 66.14-29.67 66.14-66.14-29.67-66.14-66.14-66.14z m0 109.1c-23.69 0-42.96-19.27-42.96-42.96s19.27-42.96 42.96-42.96 42.96 19.27 42.96 42.96c0.01 23.69-19.27 42.96-42.96 42.96zM675.65 317.86c-36.47 0-66.14 29.67-66.14 66.14s29.67 66.14 66.14 66.14 66.14-29.67 66.14-66.14-29.67-66.14-66.14-66.14z m0 109.1c-23.69 0-42.96-19.27-42.96-42.96s19.27-42.96 42.96-42.96 42.96 19.27 42.96 42.96c0.01 23.69-19.26 42.96-42.96 42.96zM784.76 317.86c-36.47 0-66.14 29.67-66.14 66.14s29.67 66.14 66.14 66.14S850.9 420.47 850.9 384s-29.68-66.14-66.14-66.14z m0 109.1c-23.69 0-42.96-19.27-42.96-42.96s19.27-42.96 42.96-42.96 42.96 19.27 42.96 42.96-19.27 42.96-42.96 42.96zM893.86 317.86c-36.47 0-66.14 29.67-66.14 66.14s29.67 66.14 66.14 66.14S960 420.47 960 384s-29.67-66.14-66.14-66.14z m0 109.1c-23.69 0-42.96-19.27-42.96-42.96s19.27-42.96 42.96-42.96 42.96 19.27 42.96 42.96c0.01 23.69-19.27 42.96-42.96 42.96z"  horiz-adv-x="1024" />

    
    <glyph glyph-name="marry--woman-duidie" unicode="&#58918;" d="M894.43 400.38H129.57C93.42 400.38 64 429.8 64 465.95s29.42 65.57 65.57 65.57h764.86c36.15 0 65.57-29.42 65.57-65.57s-29.42-65.57-65.57-65.57zM129.57 509.64c-24.09 0-43.7-19.61-43.7-43.7 0-24.09 19.61-43.7 43.7-43.7h764.86c24.09 0 43.7 19.61 43.7 43.7 0 24.09-19.61 43.7-43.7 43.7H129.57zM894.43 236.48H129.57C93.42 236.48 64 265.9 64 302.05s29.42 65.57 65.57 65.57h764.86c36.15 0 65.57-29.42 65.57-65.57s-29.42-65.57-65.57-65.57zM129.57 345.75c-24.09 0-43.7-19.61-43.7-43.7 0-24.09 19.61-43.7 43.7-43.7h764.86c24.09 0 43.7 19.61 43.7 43.7 0 24.09-19.61 43.7-43.7 43.7H129.57zM445.63 267.91h-215.3V336.2h215.3v-68.29z m-201.65 13.65h187.99v40.97H243.98v-40.97zM774.36 431.8H559.03v68.29h215.33v-68.29z m-201.67 13.66H760.7v40.97H572.69v-40.97z"  horiz-adv-x="1024" />

    
    <glyph glyph-name="ring-sh" unicode="&#58919;" d="M578.62 443.43a7.597 7.597 0 0 1-5.97 2.9H453.33c-2.33 0-4.53-1.06-5.97-2.9l-33.14-42.1a7.584 7.584 0 0 1 0.54-10.02l92.82-94.73a7.53 7.53 0 0 1 5.42-2.28c2.05 0 4.01 0.82 5.42 2.28l92.8 94.73c2.7 2.74 2.92 7.02 0.54 10.02l-33.14 42.1zM513 312.76l-82.72 84.4 26.73 33.96h111.95l26.73-33.96-82.69-84.4zM867.75 476.23H659.88c-30.84 49.26-85.59 82.1-147.87 82.1-62.29 0-117.05-32.84-147.89-82.1H156.25C105.39 476.23 64 434.85 64 384c0-50.87 41.39-92.24 92.25-92.24h207.88c30.84-49.26 85.6-82.09 147.88-82.09 62.27 0 117.02 32.83 147.86 82.09h207.88c50.87 0 92.25 41.37 92.25 92.24 0 50.85-41.39 92.23-92.25 92.23z m-711.5-164.2c-39.68 0-71.95 32.29-71.95 71.97s32.28 71.95 71.95 71.95h196.96c-9.99-21.95-15.56-46.31-15.56-71.95 0-25.65 5.57-50.02 15.56-71.97H156.25z m355.76-82.09c-55.15 0-103.62 29.14-130.84 72.82l-2.45 4.22c-11.86 20.47-18.83 43.36-20.42 66.76l-0.03 0.42c-0.09 1.38-0.16 2.76-0.21 4.15-0.01 0.33-0.03 0.66-0.04 0.98-0.05 1.56-0.08 3.13-0.08 4.7 0 1.57 0.03 3.13 0.08 4.7 0.01 0.32 0.03 0.65 0.04 0.97 0.05 1.39 0.12 2.78 0.21 4.17 0.01 0.13 0.02 0.26 0.02 0.39 1.58 23.4 8.56 46.29 20.42 66.77l2.55 4.4c27.24 43.59 75.65 72.66 130.74 72.66 55.02 0 103.37-28.99 130.62-72.5l2.64-4.55c11.86-20.48 18.84-43.38 20.42-66.77 0.01-0.13 0.02-0.25 0.02-0.38 0.09-1.39 0.16-2.79 0.21-4.18 0.01-0.32 0.03-0.65 0.04-0.97 0.05-1.57 0.08-3.13 0.08-4.7 0-1.57-0.03-3.13-0.08-4.7-0.01-0.33-0.03-0.65-0.04-0.98-0.05-1.39-0.12-2.77-0.21-4.16l-0.03-0.41c-1.58-23.4-8.56-46.3-20.42-66.77l-2.54-4.38c-27.21-43.59-75.61-72.66-130.7-72.66z m355.74 82.09H670.78c9.99 21.95 15.56 46.32 15.56 71.97 0 25.64-5.57 50.01-15.56 71.95h196.96c39.68 0 71.95-32.28 71.95-71.95 0.01-39.68-32.26-71.97-71.94-71.97zM156.25 416.44c-17.87 0-32.43-14.55-32.43-32.44 0-17.88 14.55-32.44 32.43-32.44 17.9 0 32.45 14.55 32.45 32.44 0 17.88-14.55 32.44-32.45 32.44z m0-54.73c-12.28 0-22.28 10-22.28 22.29s10 22.29 22.28 22.29c12.3 0 22.3-10 22.3-22.29s-10-22.29-22.3-22.29zM265.7 416.44c-17.87 0-32.43-14.55-32.43-32.44 0-17.88 14.55-32.44 32.43-32.44 17.9 0 32.45 14.55 32.45 32.44 0 17.88-14.55 32.44-32.45 32.44z m0-54.73c-12.28 0-22.28 10-22.28 22.29s10 22.29 22.28 22.29c12.3 0 22.3-10 22.3-22.29 0.01-12.29-9.99-22.29-22.3-22.29zM758.3 416.44c-17.9 0-32.45-14.55-32.45-32.44 0-17.88 14.55-32.44 32.45-32.44 17.87 0 32.43 14.55 32.43 32.44-0.01 17.88-14.56 32.44-32.43 32.44z m0-54.73c-12.3 0-22.3 10-22.3 22.29s10 22.29 22.3 22.29c12.28 0 22.28-10 22.28-22.29-0.01-12.29-10.01-22.29-22.28-22.29zM867.75 416.44c-17.9 0-32.45-14.55-32.45-32.44 0-17.88 14.55-32.44 32.45-32.44 17.9 0 32.45 14.55 32.45 32.44 0 17.88-14.56 32.44-32.45 32.44z m0-54.73c-12.3 0-22.3 10-22.3 22.29s10 22.29 22.3 22.29 22.3-10 22.3-22.29-10-22.29-22.3-22.29z"  horiz-adv-x="1024" />

    
    <glyph glyph-name="ring-sc" unicode="&#58920;" d="M578.36 443.44a7.632 7.632 0 0 1-5.98 2.9H453.06c-2.33 0-4.53-1.06-5.98-2.9l-33.14-42.11a7.62 7.62 0 0 1 0.54-10.03l92.81-94.73a7.603 7.603 0 0 1 10.86 0l92.81 94.73a7.61 7.61 0 0 1 0.54 10.03l-33.14 42.11z m-65.63-130.67l-82.7 84.41 26.72 33.96H568.7l26.73-33.96-82.7-84.41zM895.16 449.02h-72.02c-16.69 16.74-39.76 27.12-65.21 27.12-33.4 0-62.43-18.05-78.58-44.73-20.72 73.13-87.94 126.92-167.61 126.92-80.47 0-148.2-54.89-168.18-129.13-15.86 27.88-45.5 46.94-79.8 46.94-25.45 0-48.51-10.38-65.2-27.12h-69.73c-35.74 0-64.83-29.1-64.83-64.87s29.09-64.87 64.83-64.87h69.47c16.71-16.91 39.86-27.43 65.46-27.43 34.3 0 63.93 19.06 79.8 46.93 19.99-74.25 87.71-129.12 168.18-129.12 79.68 0 146.89 53.78 167.61 126.91 16.16-26.68 45.18-44.72 78.58-44.72 25.64 0 48.83 10.57 65.55 27.53 0.18-0.01 0.34-0.11 0.53-0.11h71.14c35.76 0 64.84 29.1 64.84 64.87s-29.08 64.88-64.83 64.88zM128.83 339.56c-24.57 0-44.56 20-44.56 44.59s19.99 44.59 44.56 44.59h54.9c-7.47-13.31-12.1-28.43-12.1-44.75 0-16.19 4.56-31.2 11.93-44.43h-54.73z m134.93-27.43c-39.62 0-71.86 32.24-71.86 71.86 0 39.63 32.24 71.87 71.86 71.87 39.63 0 71.87-32.24 71.87-71.87 0-39.61-32.24-71.86-71.87-71.86z m247.98-82.19c-84.95 0-154.07 69.11-154.07 154.05 0 84.95 69.11 154.07 154.07 154.07s154.07-69.11 154.07-154.07c0-84.94-69.12-154.05-154.07-154.05z m246.2 82.19c-39.62 0-71.86 32.24-71.86 71.86 0 39.63 32.24 71.87 71.86 71.87 39.63 0 71.87-32.24 71.87-71.87 0-39.61-32.24-71.86-71.87-71.86z m137.22 27.43h-57.01c7.37 13.24 11.93 28.24 11.93 44.43 0 16.32-4.63 31.44-12.1 44.75h57.18c24.57 0 44.57-20 44.57-44.59s-20-44.59-44.57-44.59z"  horiz-adv-x="1024" />

    
    <glyph glyph-name="star-zs" unicode="&#58921;" d="M511.99 0.23c-10.54 0-20.51 4.89-27 13.21L108.54 497.47c-8.8 11.33-9.61 26.95-2 39.11L240.99 751.7a34.23 34.23 0 0 0 29 16.07h484.03a34.23 34.23 0 0 0 29-16.07l134.45-215.13c7.61-12.16 6.8-27.78-2-39.11L538.98 13.44a34.218 34.218 0 0 0-26.99-13.21zM177.2 520.6l334.79-430.49L846.8 520.6 735.06 699.38H288.94L177.2 520.6z"  horiz-adv-x="1024" />

    
    <glyph glyph-name="ring-nj" unicode="&#58922;" d="M598.41 451.7a8.64 8.64 0 0 1-6.8 3.3H455.68a8.64 8.64 0 0 1-6.8-3.3l-37.76-47.96c-2.71-3.43-2.42-8.3 0.62-11.42l105.74-107.91c1.61-1.66 3.83-2.59 6.18-2.59 2.34 0 4.57 0.93 6.18 2.59l105.71 107.91a8.64 8.64 0 0 1 0.62 11.42l-37.76 47.96z m-74.75-148.85L429.42 399l30.45 38.69h127.54L617.87 399l-94.21-96.15zM921.64 318.3l-200.86 58.87c0.08 2.29 0.35 4.53 0.35 6.83s-0.27 4.54-0.35 6.82l200.86 58.88c14.21 4.15 25.74 13.48 32.48 26.25 6.43 12.18 7.61 26.03 3.41 38.98-8.85 27.2-39.28 42.56-67.56 34.22l-200.1-58.65c-35.3 55.27-97.04 92.09-167.34 92.09-72.5 0-135.87-39.16-170.55-97.32l-217.96 63.88c-28.34 8.26-58.71-7.01-67.53-34.2-4.23-12.97-3.05-26.82 3.38-39 6.74-12.77 18.27-22.09 32.48-26.25l221.59-64.95c0-0.25-0.04-0.5-0.04-0.75s0.04-0.5 0.04-0.75L102.36 318.3c-14.21-4.16-25.74-13.49-32.48-26.28-6.43-12.18-7.61-26.01-3.41-38.95 7.22-22.19 28.73-36.49 51.83-36.49 5.22 0 10.52 0.72 15.73 2.26l217.96 63.88c34.68-58.15 98.05-97.31 170.54-97.31 70.29 0 132.03 36.82 167.34 92.09l200.1-58.66a55.656 55.656 0 0 1 15.73-2.26c23.09 0 44.61 14.3 51.8 36.47 4.23 12.96 3.05 26.79-3.38 38.97-6.74 12.79-18.27 22.12-32.48 26.28zM701.5 469.85l194.96 57.14c16.61 4.85 34.06-3.76 39.11-19.2 2.26-6.98 1.61-14.45-1.89-21.05-3.81-7.2-10.38-12.49-18.53-14.87l-196.48-57.59c-0.07 0.47-0.24 0.91-0.32 1.38-2.97 18.42-8.44 35.96-16.12 52.33-0.28 0.6-0.44 1.25-0.73 1.86z m-592.65 2.01c-8.15 2.38-14.72 7.67-18.53 14.87-3.5 6.6-4.15 14.07-1.86 21.06 4.06 12.51 16.35 20.54 29.69 20.54 3.1 0 6.26-0.44 9.39-1.35L341 464.43c-0.11-0.24-0.16-0.5-0.26-0.73-3.66-8.31-6.69-16.94-9.19-25.8-0.2-0.72-0.37-1.46-0.56-2.19-2.41-8.91-4.27-18.02-5.42-27.37l-216.72 63.52zM341 303.57L127.54 241c-16.58-4.72-34.06 3.78-39.11 19.22-2.26 6.96-1.61 14.44 1.89 21.04 3.78 7.2 10.38 12.49 18.53 14.89l216.71 63.52c1.15-9.35 3.01-18.47 5.42-27.37 0.19-0.73 0.36-1.46 0.56-2.19 2.5-8.86 5.53-17.48 9.19-25.8 0.11-0.25 0.16-0.51 0.27-0.74z m181.53-95.07c-67.91 0-126.81 38.84-155.97 95.41-2.4 4.66-4.63 9.39-6.59 14.23-0.5 1.24-0.91 2.52-1.38 3.77-1.77 4.7-3.42 9.45-4.77 14.3-0.25 0.88-0.45 1.78-0.69 2.67-1.44 5.51-2.69 11.09-3.59 16.78-0.04 0.21-0.06 0.42-0.1 0.64a183.18 183.18 0 0 0-1.96 19.01c0 0.02-0.01 0.03-0.01 0.05-0.14 2.89-0.44 5.73-0.44 8.65s0.3 5.77 0.44 8.65c0 0.02 0.01 0.03 0.01 0.05 0.32 6.43 0.98 12.77 1.96 19.01 0.03 0.21 0.06 0.42 0.1 0.64 0.91 5.69 2.15 11.27 3.6 16.78 0.24 0.88 0.44 1.78 0.68 2.65 1.36 4.87 3.01 9.64 4.79 14.36 0.47 1.23 0.86 2.48 1.36 3.7 2 4.95 4.28 9.8 6.75 14.57 29.22 56.4 88.04 95.09 155.82 95.09 65.36 0 122.37-35.98 152.56-89.11 12.57-22.17 20.05-46.28 22.17-71.69 0.41-4.86 0.74-9.74 0.74-14.7 0-4.97-0.34-9.85-0.75-14.72-1.61-19.27-6.27-37.79-13.9-55.27v-0.01c-2.44-5.58-5.22-11.04-8.26-16.4-30.2-53.13-87.21-89.11-152.57-89.11z m413.01 51.7c-5.02-15.41-22.5-24.02-39.08-19.2L701.5 298.15c0.29 0.61 0.45 1.26 0.74 1.87 7.67 16.35 13.14 33.88 16.11 52.28 0.08 0.48 0.25 0.93 0.32 1.41l196.48-57.58c8.15-2.4 14.75-7.68 18.53-14.89 3.49-6.59 4.14-14.06 1.86-21.04z"  horiz-adv-x="1024" />

    
    <glyph glyph-name="marry-pz" unicode="&#58923;" d="M894.43 366.42H129.57c-36.15 0-65.57-29.41-65.57-65.56 0-36.13 29.42-65.56 65.57-65.56h764.86c36.15 0 65.57 29.42 65.57 65.56 0 36.15-29.42 65.56-65.57 65.56z m0-109.24H129.57c-24.09 0-43.7 19.58-43.7 43.68s19.61 43.71 43.7 43.71h764.86c24.09 0 43.7-19.61 43.7-43.71s-19.61-43.68-43.7-43.68zM288.05 266.73h215.33v68.28H288.05v-68.28z m13.66 54.62h188.01v-40.96H301.71v40.96zM838.76 331.3c-16.78 0-30.44-13.66-30.44-30.44 0-16.77 13.66-30.42 30.44-30.42s30.44 13.66 30.44 30.42c-0.01 16.78-13.66 30.44-30.44 30.44z m0-47.2c-9.26 0-16.78 7.52-16.78 16.77 0 9.26 7.52 16.78 16.78 16.78s16.78-7.52 16.78-16.78c0-9.25-7.53-16.77-16.78-16.77zM752.73 331.3c-16.78 0-30.44-13.66-30.44-30.44 0-16.77 13.66-30.42 30.44-30.42s30.44 13.66 30.44 30.42c-0.01 16.78-13.66 30.44-30.44 30.44z m0-47.2c-9.26 0-16.78 7.52-16.78 16.77 0 9.26 7.52 16.78 16.78 16.78 9.26 0 16.78-7.52 16.78-16.78 0-9.25-7.53-16.77-16.78-16.77zM666.7 331.3c-16.78 0-30.44-13.66-30.44-30.44 0-16.77 13.66-30.42 30.44-30.42s30.44 13.66 30.44 30.42c-0.01 16.78-13.67 30.44-30.44 30.44z m0-47.2c-9.26 0-16.78 7.52-16.78 16.77 0 9.26 7.52 16.78 16.78 16.78s16.78-7.52 16.78-16.78c-0.01-9.25-7.53-16.77-16.78-16.77zM576.58 331.3c-16.78 0-30.44-13.66-30.44-30.44 0-16.77 13.66-30.42 30.44-30.42s30.44 13.66 30.44 30.42c0 16.78-13.66 30.44-30.44 30.44z m0-47.2c-9.26 0-16.78 7.52-16.78 16.77 0 9.26 7.52 16.78 16.78 16.78s16.78-7.52 16.78-16.78c0-9.25-7.52-16.77-16.78-16.77zM234.14 331.3c-16.78 0-30.44-13.66-30.44-30.44 0-16.77 13.66-30.42 30.44-30.42s30.44 13.66 30.44 30.42c0 16.78-13.66 30.44-30.44 30.44z m0-47.2c-9.26 0-16.78 7.52-16.78 16.77 0 9.26 7.52 16.78 16.78 16.78s16.78-7.52 16.78-16.78c0-9.25-7.52-16.77-16.78-16.77zM149.71 331.3c-16.78 0-30.44-13.66-30.44-30.44 0-16.77 13.66-30.42 30.44-30.42s30.44 13.66 30.44 30.42c0 16.78-13.66 30.44-30.44 30.44z m0-47.2c-9.26 0-16.78 7.52-16.78 16.77 0 9.26 7.52 16.78 16.78 16.78 9.26 0 16.78-7.52 16.78-16.78 0-9.25-7.52-16.77-16.78-16.77zM129.57 401.58h764.86c36.15 0 65.57 29.41 65.57 65.56s-29.42 65.56-65.57 65.56H129.57C93.42 532.7 64 503.29 64 467.14s29.42-65.56 65.57-65.56z m0 109.27h764.86c24.09 0 43.7-19.61 43.7-43.71s-19.61-43.71-43.7-43.71H129.57c-24.09 0-43.7 19.61-43.7 43.71s19.61 43.71 43.7 43.71zM735.92 501.28h-215.3v-68.29h215.3v68.29z m-13.66-54.63H534.27v40.97h187.99v-40.97zM185.24 436.7c16.78 0 30.44 13.66 30.44 30.44s-13.66 30.44-30.44 30.44-30.44-13.66-30.44-30.44 13.66-30.44 30.44-30.44z m0 47.22c9.26 0 16.78-7.52 16.78-16.78 0-9.26-7.52-16.78-16.78-16.78s-16.78 7.52-16.78 16.78c0 9.25 7.53 16.78 16.78 16.78zM271.27 436.7c16.78 0 30.44 13.66 30.44 30.44s-13.66 30.44-30.44 30.44-30.44-13.66-30.44-30.44 13.66-30.44 30.44-30.44z m0 47.22c9.26 0 16.78-7.52 16.78-16.78 0-9.26-7.52-16.78-16.78-16.78-9.26 0-16.78 7.52-16.78 16.78 0 9.25 7.53 16.78 16.78 16.78zM357.3 436.7c16.78 0 30.44 13.66 30.44 30.44s-13.66 30.44-30.44 30.44-30.44-13.66-30.44-30.44 13.67-30.44 30.44-30.44z m0 47.22c9.26 0 16.78-7.52 16.78-16.78 0-9.26-7.52-16.78-16.78-16.78-9.26 0-16.78 7.52-16.78 16.78 0.01 9.25 7.53 16.78 16.78 16.78zM447.42 436.7c16.78 0 30.44 13.66 30.44 30.44s-13.66 30.44-30.44 30.44-30.44-13.66-30.44-30.44 13.66-30.44 30.44-30.44z m0 47.22c9.26 0 16.78-7.52 16.78-16.78 0-9.26-7.52-16.78-16.78-16.78-9.26 0-16.78 7.52-16.78 16.78 0 9.25 7.52 16.78 16.78 16.78zM789.86 436.7c16.78 0 30.44 13.66 30.44 30.44s-13.66 30.44-30.44 30.44-30.44-13.66-30.44-30.44 13.66-30.44 30.44-30.44z m0 47.22c9.26 0 16.78-7.52 16.78-16.78 0-9.26-7.52-16.78-16.78-16.78-9.26 0-16.78 7.52-16.78 16.78 0 9.25 7.52 16.78 16.78 16.78zM874.29 436.7c16.78 0 30.44 13.66 30.44 30.44s-13.66 30.44-30.44 30.44-30.44-13.66-30.44-30.44 13.66-30.44 30.44-30.44z m0 47.22c9.26 0 16.78-7.52 16.78-16.78 0-9.26-7.52-16.78-16.78-16.78-9.26 0-16.78 7.52-16.78 16.78 0 9.25 7.52 16.78 16.78 16.78z"  horiz-adv-x="1024" />

    
    <glyph glyph-name="Jewelry-necklace" unicode="&#58924;" d="M605.64 185.64c-4.01 6.38-11 10.26-18.54 10.26h-53.75c0 0.17 0.01 0.34 0.01 0.51v20.78c10.22 6.64 16.94 17.91 16.94 30.71 0 20.43-17.14 36.99-38.29 36.99s-38.29-16.56-38.29-36.99c0-12.32 6.24-23.23 15.84-29.95v-21.53c0-0.17 0.01-0.34 0.01-0.51h-52.09c-7.53 0-14.58-3.87-18.54-10.28l-41.56-66.5c-4.86-7.77-4.38-17.79 1.28-25.03l116.39-149.64c4.11-5.31 10.52-8.44 17.25-8.44s13.14 3.12 17.25 8.44L645.94 94.1c5.66 7.26 6.14 17.25 1.28 25.05l-41.58 66.49zM512.32-6.5l-89.74 115.38 27.03 43.27h125.37l27.08-43.27-89.74-115.38zM512 832c-193.42 0-350.78-135.92-350.78-303 0-75.94 32.09-147.59 90.69-203.38 2.64-11.78 13.48-20.6 26.46-20.6 14.96 0 27.08 11.71 27.08 26.16 0 13.13-10.01 24-23.06 25.87-50.04 47.53-77.37 108.1-77.37 171.96 0 142.94 137.71 259.25 306.98 259.25S818.98 671.94 818.98 529c0-63.9-27.33-124.47-77.31-171.95-13.06-1.87-23.08-12.74-23.08-25.87 0-14.45 12.12-26.16 27.08-26.16 13.01 0 23.88 8.87 26.48 20.69 58.58 55.73 90.63 127.35 90.63 203.3C862.78 696.08 705.42 832 512 832zM389.52 258.05a34.55 33.38 0 1 1 69.1 0 34.55 33.38 0 1 1-69.1 0ZM314.31 286.72a30.82 29.77 0 1 1 61.64 0 30.82 29.77 0 1 1-61.64 0ZM565.41 258.05a34.55 33.38 0 1 1 69.1 0 34.55 33.38 0 1 1-69.1 0ZM648.09 286.72a30.82 29.77 0 1 1 61.64 0 30.82 29.77 0 1 1-61.64 0Z"  horiz-adv-x="1024" />

    
    <glyph glyph-name="ring-gdx" unicode="&#58925;" d="M578.61 443.43a7.597 7.597 0 0 1-5.97 2.9h-119.3c-2.33 0-4.53-1.06-5.97-2.9l-33.14-42.1a7.562 7.562 0 0 1 0.54-10.02l92.8-94.73a7.53 7.53 0 0 1 5.42-2.28c2.05 0 4.01 0.82 5.42 2.28l92.82 94.73c2.7 2.74 2.92 7.03 0.54 10.02l-33.16 42.1z m-65.62-130.67l-82.7 84.41 26.73 33.96h111.93l26.76-33.96-82.72-84.41zM895.12 449.78H673.37C647.34 513.37 584.86 558.33 512 558.33c-72.84 0-135.32-44.96-161.35-108.55H128.88c-35.77 0-64.88-29.1-64.88-64.86 0-35.78 29.11-64.88 64.88-64.88h221.11C375.56 255.5 438.48 209.67 512 209.67c73.54 0 136.46 45.83 162.04 110.37h221.08c35.77 0 64.88 29.1 64.88 64.88 0 35.76-29.11 64.86-64.88 64.86z m-34.95-20.27v-89.2h-94.28v89.2h94.28z m-602.06 0v-89.2h-94.26v89.2h94.26zM84.3 384.92c0 24.59 20 44.59 44.58 44.59h19.78v-89.2h-19.78c-24.58 0-44.58 20.01-44.58 44.61z m259.03-44.61H273.3v89.2h70.55c-0.08-0.28-0.1-0.58-0.18-0.86-1.68-6.31-3-12.75-3.96-19.32-0.2-1.31-0.43-2.61-0.6-3.93-0.87-7.03-1.45-14.14-1.45-21.4 0-7 0.53-13.87 1.34-20.66 0.16-1.34 0.42-2.67 0.61-4 0.85-5.93 1.98-11.76 3.41-17.48 0.14-0.52 0.18-1.04 0.31-1.55zM512 229.94c-67.36 0-124.59 43.52-145.47 103.86-2.7 7.8-4.69 15.72-6.12 23.68-0.16 0.92-0.28 1.85-0.43 2.78-1.26 7.88-2.02 15.81-2.02 23.74 0 8.34 0.82 16.66 2.2 24.93 0.12 0.72 0.21 1.46 0.33 2.18 1.52 8.32 3.71 16.57 6.61 24.7 21.34 59.5 78.13 102.25 144.89 102.25 66.78 0 123.6-42.78 144.93-102.32 2.9-8.17 5.1-16.44 6.61-24.75 0.12-0.67 0.2-1.34 0.31-2.01 1.4-8.3 2.21-16.64 2.21-24.98 0-7.93-0.76-15.85-2.02-23.73-0.15-0.93-0.27-1.87-0.43-2.8-1.42-7.95-3.42-15.86-6.11-23.65-20.86-60.35-78.12-103.88-145.49-103.88z m168.99 111.93c1.43 5.72 2.57 11.55 3.41 17.47 0.19 1.34 0.45 2.66 0.61 4 0.81 6.79 1.34 13.66 1.34 20.66 0 7.26-0.59 14.38-1.46 21.42-0.16 1.27-0.39 2.54-0.58 3.81-0.96 6.6-2.28 13.07-3.97 19.41-0.08 0.29-0.1 0.58-0.18 0.87h70.52v-89.2h-70c0.14 0.52 0.18 1.04 0.31 1.56z m214.13-1.56h-19.75v89.2h19.75c24.58 0 44.58-20 44.58-44.59 0-24.6-20-44.61-44.58-44.61z"  horiz-adv-x="1024" />

    
    <glyph glyph-name="marry--man-diaoke" unicode="&#58926;" d="M837.82 261.82H186.18C118.81 261.82 64 316.63 64 384s54.81 122.18 122.18 122.18h651.64C905.19 506.18 960 451.37 960 384s-54.81-122.18-122.18-122.18zM186.18 479.03c-52.39 0-95.03-42.64-95.03-95.03s42.64-95.03 95.03-95.03h651.64c52.39 0 95.03 42.64 95.03 95.03s-42.64 95.03-95.03 95.03H186.18zM376.38 371.84c0-3.38-2.05-8.67-6.16-15.88-0.78-1.37-1.88-3-3.29-4.91s-2.97-3.9-4.71-5.95c-1.72-2.04-3.53-4.14-5.4-6.26-1.87-2.13-3.71-4.1-5.52-5.89a99.96 99.96 0 0 0-9.02-7.99 82.12 82.12 0 0 0-10.37-7.03c-3.65-2.09-7.38-3.77-11.24-5.02-3.86-1.26-7.65-1.9-11.4-1.9-4.97 0-9.61 0.9-13.93 2.7s-8.09 4.57-11.28 8.33c-3.21 3.74-5.73 8.44-7.57 14.09-1.83 5.65-2.76 12.33-2.76 20.05 0 5.25 0.25 10.75 0.76 16.47 0.5 5.73 1.15 11.47 1.95 17.23 0.8 5.77 1.67 11.47 2.65 17.13 0.97 5.65 1.96 11.11 2.97 16.36 0.65 3.61 1.21 6.56 1.67 8.87 0.46 2.29 0.89 4.43 1.25 6.36 0.36 1.95 0.68 3.91 0.97 5.9 0.29 1.98 0.65 4.44 1.09 7.4 0.28 2.02 0.56 3.79 0.81 5.34s0.45 2.82 0.6 3.83c0.28 1.74 0.77 3.39 1.46 4.97 0.68 1.59 1.54 3 2.59 4.22 1.05 1.22 2.25 2.2 3.62 2.92 1.37 0.72 2.88 1.09 4.53 1.09 3.46 0 6.02-1.63 7.68-4.87-0.44-2.24-0.89-4.37-1.35-6.43-0.46-2.05-0.87-4.23-1.25-6.54-1.79-9.08-3.27-16.43-4.43-22.03-1.15-5.62-1.98-9.59-2.48-11.89-0.86-4.53-1.79-9.44-2.76-14.69-0.97-5.26-1.87-10.62-2.7-16.09-0.82-5.48-1.48-10.88-1.99-16.21s-0.76-10.3-0.76-14.9c0-4.97 0.38-9.49 1.18-13.56s2.07-7.54 3.83-10.42c1.78-2.89 4.04-5.12 6.81-6.71 2.77-1.58 6.14-2.37 10.1-2.37 4.32 0 8.56 0.95 12.74 2.86s8.19 4.34 12.05 7.29c3.86 2.96 7.5 6.22 10.96 9.78s6.63 7 9.51 10.31c2.31 2.73 4.32 5.09 6.06 7.08 1.72 1.98 3.17 3.65 4.32 5.02 0.93 1.07 1.99 2.19 3.18 3.34 1.19 1.15 2.28 1.74 3.29 1.74 1.15 0 1.74-1.05 1.74-3.14zM515.84 401.65c0-1.22-0.44-2.55-1.3-3.99-0.86-1.45-1.98-2.9-3.35-4.37a45.132 45.132 0 0 0-4.64-4.32c-1.72-1.41-3.46-2.7-5.18-3.88-1.74-1.19-3.37-2.24-4.92-3.14s-2.82-1.56-3.83-2c-1.88-0.78-4.35-1.48-7.4-2.09-3.06-0.62-6.26-1.14-9.57-1.58-3.31-0.42-6.55-0.77-9.72-1.02-3.17-0.25-5.83-0.38-7.99-0.38-0.86 0-2.05 0.15-3.57 0.44-1.51 0.29-3.06 0.65-4.64 1.09-1.59 0.42-3.09 0.91-4.49 1.46-1.41 0.53-2.43 1.09-3.08 1.67 0.65-2.74 1.22-5.49 1.74-8.27 0.49-2.77 0.76-5.63 0.76-8.58 0-1.3-0.17-2.89-0.49-4.76-0.33-1.87-0.76-3.77-1.3-5.67s-1.13-3.74-1.78-5.5c-0.65-1.78-1.34-3.23-2.05-4.37-1.87-3.17-3.8-6.06-5.78-8.64-1.99-2.6-4.22-5-6.69-7.19-2.49-2.2-5.28-4.27-8.38-6.22-3.1-1.94-6.66-3.82-10.7-5.62-4.32-1.87-8.66-3.18-13.02-3.94-4.35-0.76-8.87-1.14-13.55-1.14-2.96 0-5.58 0.88-7.89 2.6s-4.26 4.06-5.83 6.97c-1.59 2.92-2.8 6.28-3.62 10.1-0.84 3.8-1.25 7.81-1.25 11.98 0 1.09 0.09 2.41 0.27 4 0.19 1.58 0.44 3.2 0.76 4.85 0.33 1.66 0.68 3.25 1.03 4.76 0.36 1.51 0.72 2.81 1.07 3.88 1.01 3.02 2.45 6.48 4.32 10.38 1.88 3.88 4.07 7.86 6.59 11.93 2.53 4.07 5.33 8.06 8.43 12 3.1 3.92 6.34 7.42 9.72 10.53 3.39 3.1 6.92 5.58 10.59 7.45 3.67 1.88 7.34 2.81 11.02 2.81 1.23 0 2.21-0.17 2.97-0.53 0.76-0.37 1.41-0.84 1.95-1.41 0.54-0.58 1.02-1.19 1.46-1.84 0.44-0.65 0.94-1.3 1.51-1.95 0.21-0.36 0.54-0.53 0.97-0.53 0.58 0 1.3 0.13 2.16 0.42 0.87 0.29 1.84 0.44 2.92 0.44 1.38 0 3.06-0.89 5.08-2.65 2.03-1.76 4.12-3.71 6.32-5.83s4.4-4.07 6.59-5.83c2.2-1.76 4.16-2.65 5.89-2.65 1.95 0 4.04 0.04 6.27 0.12 2.23 0.07 4.51 0.19 6.8 0.37 2.31 0.19 4.57 0.41 6.81 0.7 2.23 0.29 4.28 0.61 6.15 0.97 0.5 0.15 1.7 0.48 3.57 0.98s4.06 1.1 6.54 1.78c2.49 0.69 5.12 1.42 7.89 2.21 2.77 0.8 5.36 1.54 7.73 2.21 2.37 0.69 4.34 1.25 5.89 1.68 1.55 0.42 2.39 0.65 2.53 0.65 0.44 0 0.84-0.12 1.19-0.33s0.52-0.62 0.52-1.21z m-84.26-17.27c-0.44 1.43-1.29 2.84-2.55 4.2-1.26 1.38-2.7 2.6-4.32 3.67a25.455 25.455 0 0 1-5.13 2.65c-1.8 0.69-3.5 1.03-5.08 1.03-1.3 0-2.56-0.23-3.78-0.65-1.23-0.44-2.44-0.99-3.62-1.68-1.19-0.68-2.32-1.43-3.41-2.27-1.07-0.82-2.09-1.6-3.02-2.32-2.81-2.37-5.49-5.71-8.05-10-2.56-4.28-4.8-8.9-6.69-13.83-1.91-4.93-3.45-9.85-4.6-14.74-1.15-4.91-1.72-9.15-1.72-12.75 0-1.58 0.27-3.12 0.81-4.59 0.54-1.48 1.31-2.77 2.32-3.88 1.01-1.13 2.2-2.03 3.57-2.7 1.37-0.69 2.88-1.03 4.53-1.03 4.32 0 8.33 0.78 12 2.33 3.67 1.54 7 3.67 10 6.36 2.98 2.7 5.63 5.93 7.94 9.68 2.29 3.74 4.24 7.8 5.83 12.14 1.58 4.36 2.78 8.95 3.62 13.77 0.82 4.84 1.27 9.7 1.35 14.61zM656.51 355.42c0-1.01-0.37-2.15-1.14-3.41-0.74-1.26-1.78-2.55-3.08-3.83-1.3-1.3-2.78-2.59-4.48-3.84-1.7-1.26-3.45-2.36-5.25-3.29-4.16-2.16-8.43-3.67-12.81-4.53a52.96 52.96 0 0 0-13.01-0.98c-3.17 0.15-6.4 0.89-9.72 2.21a31 31 0 0 0-9.03 5.62c-2.69 2.41-4.95 5.37-6.75 8.86-1.8 3.5-2.81 7.48-3.02 11.94-0.21-0.44-0.58-1.14-1.09-2.11-0.5-0.98-1.21-2.36-2.09-4.16-0.9-1.8-2.03-4.07-3.35-6.8-1.34-2.74-2.97-6.02-4.92-9.84-1.95-3.82-4.03-7.58-6.27-11.28-2.23-3.71-4.43-7.23-6.59-10.54s-4.2-6.3-6.15-8.96-3.57-4.87-4.87-6.59c-1.66-2.24-3.34-4.04-5.08-5.41-1.72-1.37-3.34-2.39-4.87-3.08-1.51-0.69-2.84-1.14-3.99-1.35-1.15-0.21-2.05-0.32-2.7-0.32-0.8 0-1.63 0.2-2.53 0.58-0.9 0.4-1.76 0.89-2.6 1.46-0.82 0.58-1.56 1.25-2.21 2-0.65 0.76-1.07 1.54-1.3 2.32-0.07 2.16-0.27 4.6-0.6 7.29-0.32 2.7-0.84 5.77-1.56 9.19-0.72 3.42-1.68 7.19-2.92 11.3-1.22 4.1-2.73 8.64-4.53 13.6-3.88 10.16-6.59 19.3-8.1 27.44s-2.27 14.98-2.27 20.54c0 4.03 1.15 7.27 3.46 9.72 2.29 2.45 5.44 3.67 9.39 3.67 2.89 0 4.91-0.94 6.06-2.81s1.72-4.1 1.72-6.69c0-2.16-0.32-4.28-0.97-6.38-0.65-2.08-0.97-4.22-0.97-6.38 0-1.15 0.13-2.93 0.42-5.34 0.29-2.41 0.69-5.06 1.19-7.94 0.5-2.88 1.1-5.82 1.78-8.8 0.69-3 1.42-5.61 2.21-7.84 1.45-4.11 2.74-8.15 3.9-12.16 1.14-3.99 2.13-7.66 2.97-11.02 0.82-3.34 1.52-6.19 2.11-8.54 0.57-2.33 1.01-3.94 1.29-4.8 0.58-0.08 1.45 0.5 2.6 1.72s2.43 2.81 3.83 4.76c1.41 1.94 2.92 4.15 4.55 6.64 1.62 2.48 3.17 4.97 4.64 7.45 1.47 2.49 2.85 4.87 4.11 7.13 1.26 2.27 2.28 4.19 3.08 5.78 1.07 2.08 2.27 4.61 3.57 7.56 1.3 2.96 2.57 6.03 3.83 9.24 1.26 3.21 2.41 6.34 3.46 9.4 1.05 3.06 1.86 5.74 2.43 8.05 0.86 3.31 2.16 5.78 3.9 7.4 1.72 1.63 4.39 2.36 7.99 2.21 1.07 0 2.19-0.2 3.34-0.58 1.15-0.4 2.2-1.03 3.14-1.9 0.93-0.86 1.71-1.96 2.32-3.3 0.61-1.33 0.91-2.93 0.91-4.8 0.07-5.41 0.65-10.14 1.72-14.21 1.09-4.07 2.56-7.46 4.44-10.21 1.87-2.73 4.06-4.83 6.59-6.26 2.52-1.45 5.29-2.24 8.31-2.39s6.35 0.15 9.98 0.86c3.63 0.73 6.89 1.8 9.78 3.25 2.89 1.45 5.44 2.73 7.66 3.88s4.08 1.7 5.52 1.62c1.74-0.04 2.62-0.73 2.62-2.02zM750.26 360.06c0-2.52-0.93-5.26-2.78-8.21-1.88-2.96-4.56-6.27-8.01-9.94-3.95-4.18-8.33-8.05-13.07-11.61-4.75-3.57-9.65-6.67-14.69-9.29s-10.16-4.69-15.35-6.2c-5.17-1.51-10.18-2.28-15.01-2.28-11.32 0-20.07 3.65-26.25 10.92-6.2 7.27-9.31 17.92-9.31 31.98 0 4.45 0.4 9.02 1.19 13.67 0.8 4.64 1.96 9.23 3.53 13.77 1.54 4.53 3.47 8.92 5.83 13.18 2.33 4.24 5.06 8.21 8.14 11.88 1.96 2.23 4.11 4.51 6.5 6.8 2.36 2.31 5.01 4.39 7.87 6.22 2.89 1.84 6.05 3.33 9.47 4.48 3.42 1.15 7.13 1.74 11.16 1.74 2.89 0 5.49-0.57 7.8-1.68 2.31-1.11 4.24-2.53 5.83-4.27a18.02 18.02 0 0 0 3.61-5.83c0.85-2.16 1.25-4.28 1.25-6.36 0-4.4-1.19-8.84-3.55-13.35-2.39-4.49-5.73-9.04-10.05-13.62s-9.52-9.15-15.56-13.72c-6.05-4.57-12.78-9.12-20.2-13.66-1.01-0.58-2.02-1.21-3.02-1.9-1.01-0.69-1.51-1.52-1.51-2.53 0-2.16 0.29-4.44 0.88-6.81 0.56-2.37 1.62-4.56 3.13-6.54s3.55-3.62 6.1-4.92c2.55-1.29 5.81-1.94 9.78-1.94 5.04 0 10.16 0.81 15.38 2.43 5.22 1.62 10.34 3.87 15.35 6.75 5.01 2.89 9.86 6.31 14.58 10.26 4.72 3.96 9.12 8.25 13.23 12.86 2.31 2.52 4.14 3.78 5.52 3.78 0.8 0 1.35-0.46 1.72-1.41 0.35-0.93 0.51-2.49 0.51-4.65z m-50.11 46.14c0 0.78-0.21 1.51-0.66 2.16a6.02 6.02 0 0 1-1.56 1.62c-0.61 0.44-1.25 0.77-1.94 1.02s-1.27 0.38-1.78 0.38c-3.18 0-6.42-1.14-9.73-3.41-3.31-2.27-6.42-5.42-9.28-9.45-2.89-4.03-5.41-8.82-7.58-14.37-2.15-5.54-3.63-11.56-4.43-18.04 1.01 0.65 2.36 1.59 4 2.81 1.67 1.23 3.45 2.57 5.36 4.06 1.91 1.47 3.82 2.97 5.73 4.48 1.91 1.51 3.61 2.92 5.12 4.22 3.31 2.81 6.07 5.3 8.22 7.5 2.17 2.2 3.87 4.22 5.14 6.06 1.25 1.83 2.12 3.63 2.63 5.4 0.49 1.75 0.76 3.61 0.76 5.56z"  horiz-adv-x="1024" />

    
    <glyph glyph-name="ring-yx" unicode="&#58927;" d="M507.57 296.58a7.53 7.53 0 0 1 5.42-2.28c2.05 0 4.01 0.82 5.42 2.28l92.82 94.73c2.7 2.74 2.92 7.03 0.54 10.02l-33.17 42.1a7.597 7.597 0 0 1-5.97 2.9H453.34c-2.33 0-4.53-1.06-5.97-2.9l-33.14-42.1a7.584 7.584 0 0 1 0.54-10.02l92.8-94.73z m-50.55 134.56h111.93l26.76-33.96-82.72-84.41-82.7 84.41 26.73 33.96zM895.12 448.87H717.37C689.77 536.02 608.16 599.38 512 599.38s-177.77-63.36-205.37-150.51H128.88c-35.77 0-64.88-29.1-64.88-64.88 0-35.77 29.11-64.86 64.88-64.86h177.75c27.6-87.15 109.21-150.51 205.37-150.51s177.78 63.36 205.37 150.51h177.75c35.77 0 64.88 29.1 64.88 64.86 0 35.78-29.11 64.88-64.88 64.88zM128.88 339.4c-24.58 0-44.58 20-44.58 44.59 0 24.59 20 44.6 44.58 44.6h172.43c-3.05-14.4-4.71-29.31-4.71-44.6 0-15.29 1.66-30.19 4.7-44.59H128.88z m197.21-14.46l-1.83 6.63c-0.05 0.18-0.09 0.36-0.14 0.54-2.21 8-3.8 16.01-5 24-0.16 1.1-0.36 2.19-0.5 3.29-0.82 6.19-1.09 12.33-1.29 18.47h59.4c4.21 0 7.6 3.4 7.6 7.6 0 4.2-3.39 7.6-7.6 7.6h-59.19c0.26 5.16 0.4 10.32 1.09 15.52 0.14 1.11 0.35 2.2 0.51 3.3 1.19 7.98 2.78 15.98 4.98 23.96 0.06 0.23 0.11 0.46 0.18 0.69l1.79 6.49c8.9 27.95 24.03 53.08 43.62 74.02l41.26-41.24c1.49-1.49 3.42-2.23 5.37-2.23s3.89 0.74 5.37 2.23c2.97 2.97 2.97 7.78 0 10.76l-41.18 41.17c32.97 30.19 76.21 49.15 123.88 51v-57.9c0-4.2 3.39-7.6 7.6-7.6 4.21 0 7.6 3.4 7.6 7.6v57.9c47.66-1.85 90.91-20.81 123.87-50.99l-41.15-41.13c-2.97-2.97-2.97-7.78 0-10.76a7.548 7.548 0 0 1 5.37-2.23c1.96 0 3.89 0.74 5.37 2.22l41.23 41.22c19.66-21.01 34.85-46.24 43.73-74.32l1.29-4.68c0.26-0.91 0.46-1.84 0.71-2.75 2.12-7.8 3.68-15.61 4.84-23.4 0.16-1.12 0.37-2.23 0.51-3.36 0.68-5.18 0.83-10.29 1.08-15.43h-59.09c-4.21 0-7.6-3.4-7.6-7.6s3.39-7.6 7.6-7.6h59.3c-0.2-6.14-0.48-12.3-1.3-18.52-0.14-1.12-0.35-2.21-0.51-3.32-1.16-7.8-2.73-15.63-4.85-23.45-0.24-0.86-0.42-1.74-0.67-2.6l-1.33-4.81c-8.66-27.35-23.33-51.98-42.25-72.66l-42.65 42.65a7.587 7.587 0 0 1-10.74 0 7.587 7.587 0 0 1 0-10.74l42.73-42.73c-33.14-31.03-77.01-50.57-125.43-52.47v60.9c0 4.2-3.39 7.6-7.6 7.6-4.21 0-7.6-3.4-7.6-7.6v-60.91c-48.43 1.86-92.32 21.38-125.48 52.39l42.76 42.76a7.587 7.587 0 0 1 0 10.74 7.587 7.587 0 0 1-10.74 0l-42.69-42.69c-18.9 20.63-33.55 45.2-42.23 72.47z m569.03 14.46H722.69c3.04 14.4 4.7 29.3 4.7 44.59 0 15.3-1.66 30.2-4.71 44.6h172.43c24.58 0 44.58-20.01 44.58-44.6 0.01-24.59-19.99-44.59-44.57-44.59z"  horiz-adv-x="1024" />

    
    <glyph glyph-name="ring-sz" unicode="&#58928;" d="M594.29 457.43a9.36 9.36 0 0 1-7.37 3.58h-147.4c-2.87 0-5.6-1.31-7.38-3.58l-40.94-52.01a9.393 9.393 0 0 1 0.67-12.38l114.65-117.02c1.77-1.8 4.19-2.81 6.71-2.81s4.94 1.01 6.71 2.81l114.62 117.02a9.338 9.338 0 0 1 0.67 12.38l-40.94 52.01z m-81.07-161.42L411.06 400.28l33.01 41.95h138.29l33.02-41.95-102.16-104.27zM238.08 429.06h-84.55c-1.93 0-3.73-0.89-4.92-2.4l-23.47-29.83c-1.94-2.48-1.76-6.01 0.44-8.26l65.74-67.1c1.18-1.19 2.8-1.88 4.48-1.88s3.3 0.69 4.48 1.88l65.74 67.1c2.2 2.25 2.39 5.78 0.44 8.26L243 426.66a6.255 6.255 0 0 1-4.92 2.4z m-42.27-94.26l-57.43 58.62 18.19 23.1h78.46l18.19-23.1-57.41-58.62zM904.81 396.83l-23.48 29.83a6.27 6.27 0 0 1-4.92 2.4h-84.55c-1.93 0-3.73-0.89-4.92-2.4l-23.48-29.83c-1.96-2.46-1.74-6.01 0.46-8.26l65.74-67.1a6.257 6.257 0 0 1 4.46-1.88c1.68 0 3.3 0.69 4.46 1.88l65.77 67.1c2.2 2.25 2.41 5.8 0.46 8.26z m-70.7-62.03l-57.43 58.6 18.19 23.12h78.49l18.19-23.1-57.44-58.62zM831.14 512.86c-48.87 0-90.98-27.68-112.81-67.88-27.35 92.68-114.91 158.63-215.98 154.17-57.47-2.57-110.49-27.37-149.31-69.83-22.41-24.52-38.31-53.31-47.44-84.28-21.84 40.17-63.91 67.81-112.76 67.81C121.79 512.86 64 455.06 64 384.02s57.79-128.84 128.84-128.84c48.9 0 91 27.69 112.83 67.93 26.51-89.73 109.51-154.46 206.21-154.46 3.24 0 6.5 0.08 9.77 0.23 94.07 4.21 171.31 68.58 196.69 154.18 21.84-40.2 63.94-67.87 112.8-67.87 71.03 0 128.86 57.79 128.86 128.84s-57.82 128.83-128.86 128.83z m-638.3-232.64c-57.23 0-103.8 46.57-103.8 103.8s46.57 103.8 103.8 103.8 103.8-46.57 103.8-103.8-46.57-103.8-103.8-103.8z m459.64-24.62c-34.31-37.52-81.18-59.44-131.96-61.72-104.97-4.24-193.93 76.77-198.65 181.6-2.26 50.77 15.37 99.41 49.67 136.93 34.29 37.52 81.15 59.44 131.94 61.72 2.9 0.12 5.83 0.18 8.71 0.18 47.61 0 92.85-17.52 128.23-49.84 37.52-34.29 59.41-81.15 61.71-131.94 2.27-50.77-15.38-99.41-49.65-136.93z m178.66 24.62c-57.24 0-103.78 46.57-103.78 103.8s46.54 103.8 103.78 103.8 103.78-46.57 103.78-103.8-46.53-103.8-103.78-103.8z"  horiz-adv-x="1024" />

    
    <glyph glyph-name="diamond-earring" unicode="&#58929;" d="M397.37 777.22a20.08 20.08 0 0 1-16.41 8.5H148.62c-6.51 0-12.64-3.16-16.41-8.5L67.66 685.7c-5.34-7.57-4.8-17.83 1.32-24.78L249.71 455c3.82-4.36 9.31-6.83 15.08-6.83s11.26 2.47 15.08 6.83L460.6 660.92c6.12 6.95 6.66 17.22 1.32 24.78l-64.55 91.52zM264.79 498.64l-155.2 176.85 49.42 70.11h211.58L420 675.49 264.79 498.64zM744.12 455c3.82-4.36 9.31-6.83 15.08-6.83s11.26 2.47 15.08 6.83L955 660.92c6.12 6.95 6.66 17.22 1.32 24.78l-64.55 91.51a20.08 20.08 0 0 1-16.41 8.5H643.04c-6.51 0-12.64-3.16-16.41-8.5l-64.55-91.51c-5.34-7.57-4.8-17.83 1.32-24.78L744.12 455z m-90.7 290.6H865l49.42-70.11-155.21-176.85L604 675.49l49.42 70.11zM884.59 202.34h-105.3v65.43l107.55 110.78c7.69 7.96 7.54 20.67-0.44 28.38-7.89 7.66-20.67 7.49-28.36-0.42L759.21 304.7l-98.88 101.82c-7.69 7.93-20.47 8.11-28.36 0.42-7.98-7.74-8.13-20.42-0.44-28.38l107.6-110.79v-65.43h-105.3c-39.23 0-71.16-31.91-71.16-71.14 0-39.21 31.93-71.11 71.16-71.11 11.07 0 20.08 8.99 20.08 20.06 0 11.07-9.01 20.06-20.08 20.06-17.09 0-31 13.91-31 31 0 17.12 13.91 31.03 31 31.03h105.3v-159.88c0-11.07 9.01-20.06 20.08-20.06s20.08 8.99 20.08 20.06V162.22h105.3c17.09 0 30.95-13.91 30.95-31.03 0-17.09-13.86-31-30.95-31-11.07 0-20.08-8.99-20.08-20.06 0-11.07 9.01-20.06 20.08-20.06 39.18 0 71.11 31.91 71.11 71.11 0 39.25-31.93 71.16-71.11 71.16zM390.17 202.34h-105.3v65.43l107.55 110.78c7.69 7.96 7.54 20.67-0.44 28.38-7.89 7.66-20.67 7.49-28.36-0.42L264.79 304.7l-98.83 101.82c-7.69 7.93-20.47 8.11-28.36 0.42-7.98-7.71-8.13-20.42-0.44-28.38l107.55-110.78v-65.43h-105.3c-39.23 0-71.16-31.91-71.16-71.14 0-39.21 31.93-71.11 71.16-71.11 11.07 0 20.08 8.99 20.08 20.06 0 11.07-9.01 20.06-20.08 20.06-17.09 0-31 13.91-31 31 0 17.12 13.91 31.03 31 31.03h105.3v-159.88c0-11.07 9.01-20.06 20.08-20.06 11.07 0 20.08 8.99 20.08 20.06V162.22h105.3c17.09 0 31-13.91 31-31.03 0-17.09-13.91-31-31-31-11.07 0-20.08-8.99-20.08-20.06 0-11.07 9.01-20.06 20.08-20.06 39.23 0 71.16 31.91 71.16 71.11 0 39.25-31.93 71.16-71.16 71.16z"  horiz-adv-x="1024" />

    
    <glyph glyph-name="-" unicode="&#58930;" d="M960 320H64c-35.2 0-64 28.8-64 64s28.8 64 64 64h896c35.2 0 64-28.8 64-64s-28.8-64-64-64z"  horiz-adv-x="1024" />

    
    <glyph glyph-name="icon-test" unicode="&#58931;" d="M960 320H64c-35.2 0-64 28.8-64 64s28.8 64 64 64h896c35.2 0 64-28.8 64-64s-28.8-64-64-64zM448-64V832c0 35.2 28.8 64 64 64s64-28.8 64-64v-896c0-35.2-28.8-64-64-64s-64 28.8-64 64z"  horiz-adv-x="1024" />

    
    <glyph glyph-name="material-miegui" unicode="&#58932;" d="M512-128c-282.24 0-512 229.76-512 512s229.76 512 512 512 512-229.76 512-512-229.76-512-512-512zM512 670.08c-160 0-289.92-128-289.92-286.08 0-158.08 129.92-286.08 289.92-286.08s289.92 128.64 289.92 286.08c0 158.08-129.92 286.08-289.92 286.08z"  horiz-adv-x="1024" />

    
    <glyph glyph-name="material-gold" unicode="&#58933;" d="M512-128c-282.24 0-512 229.76-512 512s229.76 512 512 512 512-229.76 512-512-229.76-512-512-512zM512 670.08c-160 0-289.92-128-289.92-286.08 0-158.08 129.92-286.08 289.92-286.08s289.92 128.64 289.92 286.08c0 158.08-129.92 286.08-289.92 286.08z"  horiz-adv-x="1024" />

    
    <glyph glyph-name="material-pt" unicode="&#58934;" d="M512-128c-282.24 0-512 229.76-512 512s229.76 512 512 512 512-229.76 512-512-229.76-512-512-512zM512 670.08c-160 0-289.92-128-289.92-286.08 0-158.08 129.92-286.08 289.92-286.08s289.92 128.64 289.92 286.08c0 158.08-129.92 286.08-289.92 286.08z"  horiz-adv-x="1024" />

    
    <glyph glyph-name="material-pt1" unicode="&#58935;" d="M512-128c-282.24 0-512 229.76-512 512s229.76 512 512 512 512-229.76 512-512-229.76-512-512-512zM512 670.08c-160 0-289.92-128-289.92-286.08 0-158.08 129.92-286.08 289.92-286.08s289.92 128.64 289.92 286.08c0 158.08-129.92 286.08-289.92 286.08z"  horiz-adv-x="1024" />

    
    <glyph glyph-name="ring-js" unicode="&#58936;" d="M578.67 443.67a8.18 8.18 0 0 1-6.43 3.12H453.2c-2.51 0-4.88-1.15-6.44-3.12l-33.06-42a8.19 8.19 0 0 1 0.59-10.8l92.58-94.5a8.21 8.21 0 0 1 11.7 0l92.59 94.5a8.146 8.146 0 0 1 0.59 10.8l-33.08 42z m-65.95-129.86l-81.69 83.38 26.14 33.23h111.1l26.18-33.23-81.73-83.38zM808.38 393.67l-16.5 20.97a5.45 5.45 0 0 1-4.29 2.09h-59.45c-1.68 0-3.25-0.77-4.29-2.08l-16.53-20.97c-1.71-2.16-1.52-5.25 0.4-7.21l46.26-47.18c1.01-1.07 2.43-1.65 3.89-1.65s2.88 0.59 3.89 1.65l46.23 47.18c1.91 1.96 2.09 5.06 0.39 7.2z m-50.52-42.75l-39.01 39.77 11.92 15.12h54.18l11.89-15.1-38.98-39.79zM296.18 416.73h-59.45c-1.68 0-3.25-0.77-4.29-2.09l-16.52-20.97a5.472 5.472 0 0 1 0.39-7.2l46.24-47.18c1.03-1.07 2.44-1.65 3.91-1.65s2.88 0.59 3.91 1.65l46.24 47.18a5.472 5.472 0 0 1 0.39 7.2l-16.52 20.97a5.484 5.484 0 0 1-4.3 2.09z m-29.73-65.81l-38.98 39.77 11.9 15.12h54.15l11.9-15.12-38.97-39.77zM894.47 449.67h-71.71c-16.79 16.71-39.91 27.05-65.41 27.05-32.78 0-61.64-17.09-78.13-42.83-21.53 72.11-88.47 124.84-167.49 124.84-79.72 0-147.14-53.67-168.03-126.78-16.27 26.81-45.74 44.77-79.34 44.77-25.5 0-48.62-10.34-65.4-27.05h-69.44c-36.13 0-65.52-29.39-65.52-65.52 0-36.11 29.39-65.52 65.52-65.52h69.12c16.8-16.9 40.06-27.38 65.72-27.38 33.6 0 63.08 17.97 79.34 44.8 20.89-73.11 88.31-126.78 168.03-126.78 79.01 0 145.95 52.73 167.48 124.84 16.49-25.75 45.35-42.86 78.14-42.86 25.67 0 48.93 10.49 65.75 27.4 0.12 0 0.23-0.02 0.35-0.02h71.03c36.13 0 65.53 29.41 65.53 65.52-0.01 36.13-29.42 65.52-65.54 65.52zM129.52 340.5c-24.09 0-43.68 19.58-43.68 43.66 0 24.09 19.6 43.68 43.68 43.68h53.15c-7.04-13.06-11.03-27.99-11.03-43.83 0-15.71 3.93-30.53 10.86-43.51h-52.98z m134.84-27.39c-39.09 0-70.89 31.81-70.89 70.89 0 39.09 31.81 70.88 70.89 70.88 39.09 0 70.89-31.79 70.89-70.88 0-39.08-31.81-70.89-70.89-70.89z m247.37-81.98c-84.3 0-152.89 68.57-152.89 152.87 0 84.3 68.59 152.89 152.89 152.89 84.32 0 152.89-68.59 152.89-152.89 0-84.3-68.57-152.87-152.89-152.87z m245.62 81.98c-39.09 0-70.87 31.81-70.87 70.89 0 39.09 31.78 70.88 70.87 70.88s70.89-31.79 70.89-70.88c0-39.08-31.81-70.89-70.89-70.89z m137.12 27.39h-55.23c6.93 12.98 10.86 27.8 10.86 43.51 0 15.84-4 30.77-11.04 43.83h55.4c24.08 0 43.67-19.6 43.67-43.68 0.01-24.08-19.59-43.66-43.66-43.66z"  horiz-adv-x="1024" />

    
    <glyph glyph-name="material-big-pt" unicode="&#58937;" d="M512-64C264.96-64 64 136.96 64 383.99S264.96 832 512 832s448-200.97 448-448.01S759.04-64 512-64z m0 787.05c-186.95 0-339.05-152.11-339.05-339.05S325.05 44.95 512 44.95s339.05 152.1 339.05 339.04S698.95 723.05 512 723.05z"  horiz-adv-x="1024" />

    
    <glyph glyph-name="material-big-WK" unicode="&#58938;" d="M512-64C264.96-64 64 136.96 64 383.99S264.96 832 512 832s448-200.97 448-448.01S759.04-64 512-64z m0 787.05c-186.95 0-339.05-152.11-339.05-339.05S325.05 44.95 512 44.95s339.05 152.1 339.05 339.04S698.95 723.05 512 723.05z"  horiz-adv-x="1024" />

    
    <glyph glyph-name="material-big-Gk" unicode="&#58939;" d="M512-64C264.96-64 64 136.96 64 383.99S264.96 832 512 832s448-200.97 448-448.01S759.04-64 512-64z m0 787.05c-186.95 0-339.05-152.11-339.05-339.05S325.05 44.95 512 44.95s339.05 152.1 339.05 339.04S698.95 723.05 512 723.05z"  horiz-adv-x="1024" />

    
    <glyph glyph-name="material-big-WK1" unicode="&#58940;" d="M512-64C264.96-64 64 136.96 64 383.99S264.96 832 512 832s448-200.97 448-448.01S759.04-64 512-64z m0 787.05c-186.95 0-339.05-152.11-339.05-339.05S325.05 44.95 512 44.95s339.05 152.1 339.05 339.04S698.95 723.05 512 723.05z"  horiz-adv-x="1024" />

    
    <glyph glyph-name="material-big-rose" unicode="&#58941;" d="M512-64C264.96-64 64 136.96 64 383.99S264.96 832 512 832s448-200.97 448-448.01S759.04-64 512-64z m0 787.05c-186.95 0-339.05-152.11-339.05-339.05S325.05 44.95 512 44.95s339.05 152.1 339.05 339.04S698.95 723.05 512 723.05z"  horiz-adv-x="1024" />

    
    <glyph glyph-name="material-big-Gk1" unicode="&#58942;" d="M512-64C264.96-64 64 136.96 64 383.99S264.96 832 512 832s448-200.97 448-448.01S759.04-64 512-64z m0 787.05c-186.95 0-339.05-152.11-339.05-339.05S325.05 44.95 512 44.95s339.05 152.1 339.05 339.04S698.95 723.05 512 723.05z"  horiz-adv-x="1024" />

    
    <glyph glyph-name="material-big-all" unicode="&#58943;" d="M271.29 417.98C156.98 417.98 64 510.86 64 625c0 114.15 92.98 207 207.29 207s207.29-92.85 207.29-207c-0.01-114.14-92.99-207.02-207.29-207.02z m0 335.7c-71.06 0-128.86-57.72-128.86-128.68 0-70.95 57.8-128.67 128.86-128.67S400.14 554.05 400.14 625c0 70.95-57.8 128.68-128.85 128.68zM752.71 417.98c-114.3 0-207.29 92.88-207.29 207.02 0 114.15 92.98 207 207.29 207S960 739.15 960 625c0-114.14-92.98-207.02-207.29-207.02z m0 335.7c-71.06 0-128.86-57.72-128.86-128.68 0-70.95 57.8-128.67 128.86-128.67S881.57 554.05 881.57 625c0 70.95-57.8 128.68-128.86 128.68zM271.29-64C156.98-64 64 28.88 64 143.02s92.98 207.02 207.29 207.02 207.29-92.88 207.29-207.02S385.59-64 271.29-64z m0 335.69c-71.06 0-128.86-57.72-128.86-128.67s57.8-128.67 128.86-128.67 128.86 57.72 128.86 128.67-57.81 128.67-128.86 128.67zM752.71-64c-114.3 0-207.29 92.88-207.29 207.02s92.98 207.02 207.29 207.02S960 257.15 960 143.02 867.02-64 752.71-64z m0 335.69c-71.06 0-128.86-57.72-128.86-128.67s57.8-128.67 128.86-128.67 128.86 57.72 128.86 128.67-57.8 128.67-128.86 128.67z"  horiz-adv-x="1024" />

    
    <glyph glyph-name="Jewelry-man" unicode="&#58944;" d="M718.848 314.88c-18.432 74.24-54.272 163.328-71.68 206.336-2.56 6.144-4.608 11.776-6.656 15.872-3.584 9.216-13.824 13.312-23.552 10.24-9.216-3.584-13.824-13.824-10.24-23.04 1.536-4.096 4.096-9.728 6.656-15.872 16.896-41.984 52.736-129.536 70.144-201.216 2.048-8.192 9.216-13.312 17.408-13.312 1.536 0 3.072 0 4.096 0.512 10.24 1.536 16.384 10.752 13.824 20.48zM541.696 537.6c8.192-22.016 26.624-82.944 49.152-172.032 26.112-100.864 40.448-167.936 40.96-181.248-3.584-8.192-19.968-27.648-53.76-53.76-32.768-25.088-57.856-37.376-64.512-37.888-5.632 0.512-29.696 10.752-60.928 34.304-28.16 20.992-49.152 43.52-54.784 57.856 0 13.312 12.8 80.384 38.912 181.248 22.528 88.576 40.448 149.504 49.152 171.008h-37.888c-3.584-10.24-5.632-17.92-11.264-35.84-10.24-33.28-22.016-77.312-33.792-124.416-11.776-47.104-22.528-92.16-29.696-126.464-13.312-63.488-10.752-70.656-9.216-75.264 9.728-29.696 47.104-60.928 68.096-76.8 12.8-9.728 56.832-40.96 82.432-40.96 24.576 0 68.096 31.232 85.504 44.544 17.408 13.312 59.392 47.616 67.584 73.728 1.536 5.12 3.072 11.264-10.752 74.24-7.68 34.304-18.944 79.36-31.232 126.464-12.288 47.616-24.576 91.648-34.304 124.928-5.632 17.92-7.68 25.6-11.264 35.84"  horiz-adv-x="1024" />

    
    <glyph glyph-name="icon-xiaoxi" unicode="&#58945;" d="M512 388.14c-7.85 0-15.29 3.5-20.28 9.52l-51.65 62.28c-9.29 11.22-7.75 27.82 3.45 37.11 11.17 9.34 27.87 7.77 37.11-3.45L512 455.78l31.35 37.81c9.29 11.19 25.89 12.82 37.08 3.47 11.22-9.29 12.76-25.89 3.47-37.08l-51.63-62.28a26.226 26.226 0 0 0-20.27-9.56zM512-36.75c-7.51 0-14.69 3.22-19.69 8.85L361.19 119.57h-83.43C159.89 119.57 64 225.96 64 356.75V567.57c0 130.79 95.89 237.18 213.76 237.18h468.49C864.11 804.75 960 698.36 960 567.57v-210.82c0-130.79-95.89-237.18-213.76-237.18h-83.46l-131.1-147.46a26.245 26.245 0 0 0-19.68-8.86zM277.76 752.04c-88.81 0-161.05-82.76-161.05-184.47v-210.82c0-101.71 72.24-184.47 161.05-184.47h95.27c7.51 0 14.69-3.22 19.69-8.85L512 29.26l119.26 134.16a26.289 26.289 0 0 0 19.69 8.85h95.3c88.81 0 161.05 82.76 161.05 184.47V567.57c0 101.71-72.24 184.47-161.05 184.47H277.76z"  horiz-adv-x="1024" />

    
    <glyph glyph-name="icon-gouwuche" unicode="&#58946;" d="M542.39 384.21l-30.32-30.34-30.37 30.34c-10.29 10.29-26.97 10.29-37.27 0-10.29-10.29-10.29-26.97 0-37.26l49-49a26.33 26.33 0 0 1 18.63-7.72c7 0 13.69 2.78 18.63 7.72l48.95 49c10.29 10.29 10.29 27 0 37.26-10.28 10.29-26.95 10.29-37.25 0zM857.24 597.5c0 54.2-47.4 98.31-105.67 98.31h-48.38c0.06 0.75 0.1 1.5 0.1 2.26v7.41C703.29 775.25 653 832 591.14 832H426.02c-61.87 0-112.21-56.75-112.21-126.51v-7.41c0-0.76 0.04-1.52 0.1-2.26h-41.38c-58.26 0-105.67-44.11-105.57-96.2l-45.6-565.28c0-54.22 47.4-98.33 105.62-98.33h570.14c58.21 0 105.62 44.11 105.51 100.44L857.24 597.5zM366.52 698.07v7.41c0 40.69 26.71 73.81 59.5 73.81h165.12c32.79 0 59.45-33.12 59.45-73.81v-7.41c0-0.76 0.04-1.52 0.1-2.26H366.42c0.06 0.75 0.1 1.5 0.1 2.26z m430.6-709.36H226.98c-29.18 0-52.91 20.46-53.01 43.52l45.6 565.28c0 25.14 23.78 45.6 52.96 45.6h479.04c29.18 0 52.96-20.46 53.07-47.71l45.4-561.06c-0.01-25.17-23.74-45.63-52.92-45.63z"  horiz-adv-x="1024" />

    
    <glyph glyph-name="icon-gerenzhongxin" unicode="&#58947;" d="M512 141.57c-7.21 0-14.1 2.96-19.1 8.18l-59.29 62.28c-10.04 10.55-9.63 27.23 0.93 37.26 10.53 9.99 27.15 9.6 37.26-0.93l40.2-42.23 40.2 42.23c10.11 10.53 26.79 10.89 37.26 0.93 10.55-10.04 10.96-26.71 0.93-37.26l-59.29-62.28c-5-5.22-11.89-8.18-19.1-8.18zM826.23-62.48H197.77C124.01-62.48 64-3.44 64 69.13v41.82c0 119.57 99.06 216.85 220.78 216.85h17.47c-27.97 40.64-43.34 88.63-43.34 137.86V581.98C258.92 719 372.46 830.48 512 830.48S765.08 719 765.08 581.98v-116.32c0-49.23-15.39-97.23-43.34-137.86h17.47c121.73 0 220.78-97.28 220.78-216.85v-41.82c0.01-72.57-60-131.61-133.76-131.61zM284.78 275.09c-92.67 0-168.08-73.63-168.08-164.14v-41.82c0-43.52 36.36-78.9 81.07-78.9h628.46c44.7 0 81.07 35.39 81.07 78.9v41.82c0 90.51-75.4 164.14-168.08 164.14h-75.74c-10.94 0-20.77 6.77-24.63 17.01-3.89 10.24-1.06 21.8 7.15 29.06 42.8 37.93 66.37 89.25 66.37 144.5V581.98c0 107.96-89.89 195.79-200.38 195.79s-200.38-87.83-200.38-195.79v-116.32c0-55.25 23.57-106.57 66.37-144.5 8.21-7.26 11.04-18.81 7.15-29.06-3.86-10.24-13.69-17.01-24.63-17.01h-75.72z"  horiz-adv-x="1024" />

    
    <glyph glyph-name="icon-zuanshi" unicode="&#58948;" d="M956.65 547.83L804.61 791.19c-4.1 6.44-11.15 10.36-18.78 10.36h-547.6c-7.63 0-14.68-3.92-18.71-10.36L67.4 547.83c-4.96-7.88-4.46-17.99 1.3-25.29l425.4-546.91c0.88-1.22 1.88-2.34 2.98-3.35 0.07-0.06 0.13-0.12 0.2-0.18 0.25-0.22 0.5-0.45 0.77-0.66 0.19-0.15 0.38-0.3 0.57-0.44a21.56 21.56 0 0 1 1.75-1.21c0.13-0.08 0.26-0.16 0.39-0.23 0.35-0.21 0.71-0.41 1.08-0.6 0.09-0.05 0.17-0.09 0.26-0.14 0.95-0.48 1.93-0.88 2.94-1.22l0.27-0.09c0.46-0.15 0.93-0.28 1.41-0.4 0.05-0.01 0.1-0.03 0.14-0.04 0.52-0.12 1.05-0.23 1.58-0.32 0.1-0.02 0.2-0.03 0.3-0.04 0.43-0.06 0.85-0.12 1.29-0.15 0.14-0.01 0.28-0.03 0.42-0.04 0.53-0.04 1.06-0.06 1.59-0.06s1.06 0.03 1.59 0.06c0.14 0.01 0.28 0.02 0.42 0.04 0.43 0.04 0.86 0.09 1.29 0.15 0.1 0.01 0.2 0.03 0.3 0.04 0.53 0.09 1.06 0.19 1.58 0.32 0.05 0.01 0.09 0.03 0.14 0.04 0.47 0.12 0.94 0.25 1.41 0.4l0.27 0.09c1.01 0.34 1.99 0.74 2.94 1.22 0.09 0.04 0.18 0.09 0.26 0.14 0.37 0.19 0.73 0.39 1.08 0.6 0.13 0.08 0.26 0.15 0.39 0.23 0.34 0.21 0.67 0.43 1 0.66 0.25 0.18 0.5 0.36 0.74 0.55 0.19 0.15 0.38 0.29 0.57 0.45 0.26 0.21 0.51 0.43 0.76 0.66 0.07 0.06 0.14 0.12 0.2 0.19 1.1 1.01 2.1 2.13 2.98 3.35l425.41 546.91c5.67 7.28 6.18 17.39 1.28 25.27z m-292.78-33.82L512.03 58.45 360.12 514.01h303.75z m-290.22 44.18l138.38 184.43 138.31-184.43H373.65z m182.6 199.18H753.9l-65.92-175.68-131.73 175.68zM336.01 581.69l-65.86 175.68H467.8L336.01 581.69z m-38.46-23.5H125.97l107.24 171.59 64.34-171.59z m16.02-44.18l136.73-410.1-319.03 410.1h182.3z m396.84 0h182.3L573.74 103.9l136.67 410.11z m16.03 44.18l64.39 171.59 107.19-171.59H726.44z"  horiz-adv-x="1024" />

    
    <glyph glyph-name="icon-xinyuandan" unicode="&#58949;" d="M509.83-12.94h-0.41c-7.25 0.1-14.2 3.24-19.09 8.64L124.88 388.09c-87.05 95.87-79.9 244.71 16 331.78 46.46 42.21 106.6 64.1 169.16 60.73 62.66-3.01 120.44-30.25 162.62-76.71l38.02-41.88 45.48 47.1c43.58 45.14 102.12 70.61 164.84 71.69 60.86 1.16 122.08-22.25 167.25-65.85 45.12-43.6 70.59-102.15 71.72-164.86 1.08-62.74-22.33-122.13-65.95-167.28l-365.25-387.7a26.299 26.299 0 0 0-18.94-8.05zM298.56 728.2c-45.38 0-88.49-16.62-122.29-47.33-74.34-67.55-79.95-183-12.4-257.39l346.52-371.55 345.75 367.48c33.8 35.01 51.96 81.11 51.14 129.75-0.87 48.64-20.63 94.07-55.67 127.87-34.98 33.8-80.62 51.99-129.7 51.11-48.67-0.85-94.1-20.6-127.9-55.61l-65.03-67.34c-5.04-5.25-12.66-8.23-19.34-8.05-7.31 0.1-14.2 3.24-19.09 8.64l-56.9 62.69c-32.72 36.04-77.53 57.18-126.15 59.52-2.97 0.14-6 0.21-8.94 0.21zM510.61 330.29c-7.31 0-13 3.04-17.94 8.39l-51.04 54.69c-9.88 10.62-9.31 27.29 1.34 37.22 10.7 9.9 27.32 9.36 37.25-1.31l31.69-34.01 31.69 34.01c9.93 10.68 26.6 11.19 37.25 1.31 10.65-9.93 11.22-26.6 1.34-37.22l-51.04-54.69c-4.93-5.36-13.23-8.39-20.54-8.39z"  horiz-adv-x="1024" />

    
    <glyph glyph-name="icon-sousuo" unicode="&#58950;" d="M884.09-20.61L737.13 156.04c-0.61 0.73-1.25 1.42-1.92 2.07 90.27 68.55 148.67 177 148.67 298.83C883.88 663.75 715.65 832 508.85 832S133.78 663.75 133.78 456.94c0-206.78 168.25-375.04 375.06-375.04 66.49 0 128.99 17.39 183.19 47.86 1.01-2.68 2.48-5.25 4.42-7.58l146.96-176.65c5.22-6.28 12.77-9.54 20.36-9.54 5.94 0 11.96 2.02 16.9 6.12 11.25 9.34 12.77 26.04 3.42 37.28zM186.71 456.94c0 177.63 144.51 322.14 322.14 322.14 177.61 0 322.11-144.51 322.11-322.14 0-177.61-144.51-322.11-322.11-322.11-177.64-0.01-322.14 144.5-322.14 322.11zM581.74 505.73c-10.62 9.95-27.34 9.38-37.39-1.32l-35.51-38.09-35.53 38.09c-9.95 10.75-26.75 11.29-37.39 1.32-10.7-9.97-11.29-26.72-1.32-37.39l54.89-58.84a26.44 26.44 0 0 1 19.36-8.42c7.34 0 14.34 3.05 19.36 8.42l54.86 58.84c9.97 10.67 9.37 27.41-1.33 37.39z"  horiz-adv-x="1024" />

    
    <glyph glyph-name="icon-new-caozonganniuwenli" unicode="&#58951;" d="M162.210759 9.610585L778.826494 824.853931a55.216113 55.216113 0 0 0 85.939475-64.454606L248.150235-54.844022a55.323537 55.323537 0 0 0-85.939476 64.454607zM7.519704 339.940442L418.954942 883.400199a55.323537 55.323537 0 0 0 85.939475-64.454607L93.459179 275.485836a55.216113 55.216113 0 0 0-85.939475 64.669455z m514.562608-388.7687l410.360994 543.459756a55.216113 55.216113 0 0 0 85.939475-64.454607L608.021787-113.282865a55.216113 55.216113 0 0 0-85.939475 64.669455z"  horiz-adv-x="1026" />

    
    <glyph glyph-name="shijue-shitu" unicode="&#58952;" d="M448.711111 423.731717H232.300606c-8.533333 0-15.515152 6.981818-15.515151 15.515152V655.670303c0 8.533333 6.981818 15.515152 15.515151 15.515152h216.410505c8.533333 0 15.515152-6.981818 15.515152-15.515152v-216.410505c0-8.546263-6.981818-15.528081-15.515152-15.528081zM791.699394 423.731717H575.288889c-8.533333 0-15.515152 6.981818-15.515152 15.515152V655.670303c0 8.533333 6.981818 15.515152 15.515152 15.515152h216.410505c8.533333 0 15.515152-6.981818 15.515151-15.515152v-216.410505c0-8.546263-6.981818-15.528081-15.515151-15.528081zM448.711111 96.814545H232.300606c-8.533333 0-15.515152 6.981818-15.515151 15.515152V328.753131c0 8.533333 6.981818 15.515152 15.515151 15.515152h216.410505c8.533333 0 15.515152-6.981818 15.515152-15.515152v-216.410505c0-8.546263-6.981818-15.528081-15.515152-15.528081zM791.699394 96.814545H575.288889c-8.533333 0-15.515152 6.981818-15.515152 15.515152V328.753131c0 8.533333 6.981818 15.515152 15.515152 15.515152h216.410505c8.533333 0 15.515152-6.981818 15.515151-15.515152v-216.410505c0-8.546263-6.981818-15.528081-15.515151-15.528081z"  horiz-adv-x="1024" />

    
    <glyph glyph-name="shijue-liebiao" unicode="&#58953;" d="M917.191111 441.082828h-578.844444c-31.961212 0-57.884444-25.923232-57.884445-57.884444 0-31.935354 25.923232-57.884444 57.884445-57.884445h578.844444c32 0 57.884444 25.949091 57.884445 57.884445-0.012929 31.974141-25.897374 57.884444-57.884445 57.884444z m-810.382222 0c-31.961212 0-57.884444-25.923232-57.884445-57.884444 0-31.935354 25.923232-57.884444 57.884445-57.884445 31.974141 0 57.884444 25.949091 57.884444 57.884445 0 31.974141-25.923232 57.884444-57.884444 57.884444z m0 289.422223C74.847677 730.505051 48.924444 704.581818 48.924444 672.620606c0-31.974141 25.923232-57.884444 57.884445-57.884444 31.974141 0 57.884444 25.910303 57.884444 57.884444 0 31.961212-25.923232 57.884444-57.884444 57.884445z m231.537778-115.768889h578.844444c32 0 57.884444 25.910303 57.884445 57.884444 0 31.961212-25.884444 57.884444-57.884445 57.884445h-578.844444c-31.961212 0-57.884444-25.923232-57.884445-57.884445 0-31.974141 25.923232-57.884444 57.884445-57.884444z m578.844444-463.075556h-578.844444c-31.961212 0-57.884444-25.949091-57.884445-57.884444 0-31.935354 25.923232-57.884444 57.884445-57.884445h578.844444c32 0 57.884444 25.949091 57.884445 57.884445 0 31.935354-25.897374 57.884444-57.884445 57.884444z m-810.382222 0c-31.961212 0-57.884444-25.949091-57.884445-57.884444 0-31.935354 25.923232-57.884444 57.884445-57.884445 31.974141 0 57.884444 25.949091 57.884444 57.884445 0 31.935354-25.923232 57.884444-57.884444 57.884444z m0 0"  horiz-adv-x="1024" />

    
    <glyph glyph-name="shijue-shitu1" unicode="&#58954;" d="M415.96 445.98H87.54c-12.95 0-23.54 10.89-23.54 24.2V807.8C64 821.11 74.6 832 87.54 832h328.41c12.95 0 23.54-10.89 23.54-24.2v-337.6c0.01-13.33-10.58-24.22-23.53-24.22zM936.46 445.98H608.04c-12.95 0-23.54 10.89-23.54 24.2V807.8c0 13.31 10.6 24.2 23.54 24.2h328.41C949.4 832 960 821.11 960 807.8v-337.6c0-13.33-10.6-24.22-23.54-24.22zM415.96-64H87.54C74.6-64 64-53.11 64-39.8V297.82c0 13.31 10.6 24.2 23.54 24.2h328.41c12.95 0 23.54-10.89 23.54-24.2v-337.59c0.01-13.34-10.58-24.23-23.53-24.23zM936.46-64H608.04c-12.95 0-23.54 10.89-23.54 24.2V297.82c0 13.31 10.6 24.2 23.54 24.2h328.41c12.95 0 23.54-10.89 23.54-24.2v-337.59C960-53.11 949.4-64 936.46-64z"  horiz-adv-x="1024" />

    
    </font>
</defs>
</svg>
